<?xml version="1.0" encoding="utf-8"?>
<!-- Generator: Adobe Illustrator 16.0.0, SVG Export Plug-In . SVG Version: 6.00 Build 0)  -->
<!DOCTYPE svg PUBLIC "-//W3C//DTD SVG 1.1//EN" "http://www.w3.org/Graphics/SVG/1.1/DTD/svg11.dtd">
<svg version="1.1" id="Layer_1" xmlns="http://www.w3.org/2000/svg" xmlns:xlink="http://www.w3.org/1999/xlink" x="0px" y="0px"
	 width="600.42px" height="187.692px" viewBox="0 0 600.42 187.692" enable-background="new 0 0 600.42 187.692"
	 xml:space="preserve">
<g>
	<path fill="none" d="M508.457,9.336c10.835,0,21.673,2.207,31.689,6.431c10.013,4.225,19.202,10.495,26.866,18.314
		c7.667,7.822,13.813,17.192,17.954,27.408c4.141,10.217,6.301,21.277,6.301,32.333c0.008,11.073-2.156,22.149-6.301,32.378
		c-4.142,10.217-10.287,19.589-17.954,27.41c-7.664,7.82-16.854,14.089-26.866,18.314c-10.017,4.222-20.854,6.431-31.689,6.431
		H207.436v4.668h301.021c5.737-0.296,11.472-0.593,17.05-1.722c5.569-1.132,10.982-3.1,16.391-5.065
		c10.239-5.643,20.473-11.285,28.353-19.326c7.882-8.041,13.413-18.483,18.944-28.924c1.924-5.52,3.854-11.041,4.967-16.726
		c1.106-5.686,1.393-11.541,1.686-17.393c-0.288-5.868-0.579-11.738-1.686-17.439c-1.113-5.686-3.043-11.206-4.967-16.728
		c-5.531-10.438-11.063-20.88-18.944-28.922c-7.88-8.041-18.113-13.684-28.353-19.324c-5.408-1.968-10.821-3.936-16.391-5.068
		c-5.578-1.129-11.313-1.425-17.05-1.721H207.436v4.668H508.457z"/>
	<path fill="#ED1C24" d="M598.646,75.519c-1.169-5.982-3.199-11.79-5.225-17.599c-5.823-10.989-11.641-21.976-19.937-30.438
		c-8.295-8.463-19.063-14.4-29.833-20.337c-5.692-2.071-11.388-4.14-17.257-5.331c-5.859-1.192-11.9-1.502-17.933-1.813H207.436
		v4.667h301.021c5.737,0.296,11.472,0.592,17.05,1.721c5.569,1.132,10.982,3.1,16.391,5.068
		c10.239,5.64,20.473,11.283,28.353,19.324c7.882,8.042,13.413,18.484,18.944,28.922c1.924,5.522,3.854,11.042,4.967,16.728
		c1.106,5.701,1.397,11.571,1.686,17.439c-0.293,5.852-0.579,11.707-1.686,17.393c-1.113,5.685-3.043,11.206-4.967,16.726
		c-5.531,10.441-11.063,20.883-18.944,28.924c-7.88,8.042-18.113,13.684-28.353,19.326c-5.408,1.965-10.821,3.933-16.391,5.065
		c-5.578,1.129-11.313,1.426-17.05,1.722H207.436v4.667h301.026c6.032-0.311,12.073-0.62,17.933-1.812
		c5.867-1.189,11.561-3.26,17.253-5.33c10.77-5.936,21.54-11.875,29.835-20.337c8.298-8.461,14.111-19.449,19.933-30.437
		c2.028-5.808,4.06-11.618,5.23-17.603c1.165-6,1.475-12.179,1.774-18.355C600.115,87.66,599.811,81.503,598.646,75.519z"/>
	<path fill="#ED1C24" d="M540.146,171.925c10.013-4.225,19.202-10.494,26.866-18.314c7.667-7.821,13.813-17.192,17.954-27.41
		c4.145-10.229,6.309-21.306,6.301-32.378c0-11.056-2.16-22.116-6.301-32.333c-4.142-10.215-10.287-19.585-17.954-27.408
		c-7.664-7.82-16.854-14.09-26.866-18.314c-10.017-4.224-20.854-6.431-31.689-6.431H207.436v169.02h301.021
		C519.292,178.356,530.129,176.147,540.146,171.925z"/>
</g>
<path fill="none" d="M74.852,6.63c-5.57,1.132-10.982,3.1-16.391,5.065C48.221,17.338,37.988,22.98,30.108,31.021
	c-7.881,8.041-13.413,18.483-18.944,28.924C9.24,65.465,7.31,70.986,6.197,76.671c-1.106,5.686-1.392,11.541-1.686,17.393
	c0.288,5.868,0.58,11.738,1.686,17.439c1.113,5.686,3.043,11.206,4.967,16.728c5.532,10.438,11.063,20.879,18.944,28.922
	c7.88,8.041,18.113,13.684,28.353,19.324c5.409,1.968,10.821,3.936,16.391,5.068c5.577,1.129,11.313,1.426,17.051,1.721h319.874
	v-4.668H91.903c-10.836,0-21.675-2.207-31.691-6.431c-10.013-4.225-19.202-10.495-26.866-18.314
	c-7.667-7.822-13.813-17.192-17.954-27.408C11.25,116.227,9.09,105.167,9.09,94.11c-0.007-11.073,2.156-22.149,6.302-32.378
	c4.141-10.217,10.287-19.589,17.954-27.41c7.665-7.82,16.854-14.089,26.866-18.314c10.017-4.222,20.855-6.431,31.691-6.431h319.874
	V4.909H91.903C86.164,5.205,80.429,5.501,74.852,6.63z"/>
<path fill="#ED1C24" d="M91.965,183.024c-5.739-0.295-11.474-0.592-17.051-1.721c-5.57-1.132-10.982-3.1-16.391-5.068
	c-10.239-5.64-20.473-11.283-28.353-19.324c-7.881-8.043-13.413-18.484-18.944-28.922c-1.924-5.522-3.854-11.042-4.967-16.728
	C5.153,105.56,4.861,99.69,4.573,93.822c0.294-5.852,0.58-11.707,1.686-17.393c1.113-5.685,3.043-11.206,4.967-16.726
	C16.758,49.263,22.289,38.821,30.17,30.78c7.88-8.042,18.113-13.684,28.353-19.326c5.409-1.965,10.821-3.933,16.391-5.065
	c5.577-1.129,11.313-1.426,17.051-1.722h319.874V0H91.959c-6.035,0.311-12.075,0.621-17.935,1.812
	c-5.868,1.189-11.56,3.26-17.253,5.33c-10.769,5.936-21.541,11.875-29.834,20.337C18.639,35.94,12.826,46.928,7.004,57.916
	c-2.027,5.808-4.059,11.618-5.23,17.603c-1.166,6-1.475,12.179-1.774,18.355c0.305,6.159,0.608,12.316,1.774,18.3
	c1.169,5.982,3.199,11.79,5.225,17.599c5.823,10.989,11.641,21.976,19.937,30.438c8.294,8.463,19.063,14.4,29.833,20.337
	c5.693,2.071,11.387,4.14,17.257,5.331c5.86,1.192,11.9,1.502,17.935,1.813h319.88v-4.667H91.965z"/>
<path fill="#ED1C24" d="M60.025,15.767c-10.013,4.225-19.202,10.494-26.866,18.314c-7.667,7.821-13.813,17.192-17.954,27.41
	C11.06,71.72,8.896,82.796,8.903,93.869c0,11.056,2.16,22.116,6.302,32.333c4.141,10.215,10.287,19.585,17.954,27.408
	c7.665,7.82,16.854,14.09,26.866,18.314c10.017,4.224,20.855,6.431,31.691,6.431H411.59V9.336H91.716
	C80.88,9.336,70.042,11.545,60.025,15.767z"/>
<g>
	<path fill-rule="evenodd" clip-rule="evenodd" fill="#FFFFFF" d="M73.161,151.884h-2.429l-0.276,5.023h2.43L73.161,151.884z
		 M76.55,151.884h-2.448l-0.274,5.023h2.446L76.55,151.884z"/>
	<path fill-rule="evenodd" clip-rule="evenodd" fill="#FFFFFF" d="M82.334,157.168l0.529-2.44h1.832
		c0.228,0,0.457,0.013,0.629,0.035c0.175,0.025,0.296,0.056,0.39,0.088c0.096,0.032,0.167,0.063,0.225,0.096
		c0.058,0.032,0.104,0.063,0.144,0.096c0.151,0.131,0.2,0.236,0.242,0.363c0.017,0.054,0.033,0.115,0.041,0.188
		c0.016,0.137,0.009,0.35-0.035,0.541c-0.021,0.089-0.044,0.162-0.073,0.228c-0.073,0.165-0.163,0.302-0.345,0.443
		c-0.053,0.041-0.112,0.08-0.185,0.117c-0.072,0.037-0.155,0.074-0.267,0.109c-0.109,0.037-0.243,0.072-0.426,0.096
		c-0.183,0.026-0.415,0.041-0.645,0.041H82.334z M76.5,164.677h4.256l1-4.702h1.109c0.307,0,0.614,0.014,0.842,0.042
		c0.229,0.029,0.379,0.069,0.498,0.109c0.116,0.039,0.201,0.077,0.27,0.115c0.071,0.039,0.126,0.077,0.173,0.117
		c0.111,0.092,0.173,0.177,0.228,0.273c0.03,0.055,0.056,0.116,0.078,0.189c0.023,0.074,0.044,0.16,0.056,0.269
		c0.012,0.109,0.013,0.244,0.005,0.377c-0.004,0.095-0.011,0.191-0.017,0.265c-0.015,0.137-0.029,0.218-0.052,0.313l-0.261,1.309
		c-0.025,0.134-0.045,0.271-0.06,0.373c-0.03,0.226-0.033,0.267-0.039,0.378c-0.003,0.062-0.006,0.145-0.004,0.219
		c0.003,0.136,0.013,0.244,0.031,0.353h4.652l0.021-0.368c-0.056-0.018-0.109-0.043-0.15-0.068
		c-0.105-0.065-0.136-0.117-0.174-0.186c-0.063-0.108-0.071-0.314-0.052-0.46c0.002-0.032,0.007-0.073,0.016-0.132
		s0.022-0.137,0.038-0.215l0.227-1.326c0.017-0.114,0.036-0.229,0.052-0.331c0.027-0.194,0.041-0.347,0.05-0.508
		c0.016-0.244,0.002-0.49-0.031-0.69c-0.035-0.203-0.09-0.359-0.157-0.499c-0.139-0.272-0.305-0.499-0.68-0.747
		c-0.187-0.121-0.43-0.242-0.684-0.334c0.434-0.17,0.847-0.396,1.186-0.645c0.341-0.248,0.606-0.519,0.829-0.814
		c0.222-0.296,0.401-0.616,0.536-0.995c0.132-0.377,0.219-0.812,0.244-1.249c0.015-0.27,0.008-0.542-0.018-0.776
		s-0.072-0.43-0.127-0.604c-0.057-0.174-0.121-0.324-0.196-0.462c-0.076-0.137-0.16-0.261-0.256-0.378
		c-0.098-0.118-0.207-0.227-0.335-0.334c-0.127-0.106-0.274-0.208-0.456-0.307c-0.18-0.101-0.396-0.197-0.678-0.294
		c-0.284-0.096-0.637-0.191-1.126-0.258c-0.487-0.067-1.109-0.104-1.73-0.104h-6.352L76.5,164.677z"/>
	<path fill-rule="evenodd" clip-rule="evenodd" fill="#FFFFFF" d="M97.934,161.834c-0.034,0.083-0.076,0.159-0.127,0.229
		c-0.051,0.071-0.11,0.134-0.184,0.194c-0.072,0.06-0.157,0.117-0.263,0.169c-0.107,0.053-0.235,0.1-0.396,0.135
		c-0.162,0.034-0.355,0.055-0.552,0.055c-0.195-0.001-0.394-0.022-0.556-0.06c-0.163-0.038-0.29-0.09-0.401-0.152
		c-0.107-0.059-0.199-0.128-0.278-0.21c-0.082-0.08-0.15-0.174-0.213-0.291c-0.061-0.115-0.117-0.254-0.151-0.438
		c-0.042-0.224-0.048-0.51-0.028-0.781h7.366c0.056-0.33,0.094-0.653,0.111-0.96c0.032-0.587-0.006-1.18-0.102-1.668
		c-0.095-0.489-0.247-0.875-0.425-1.206c-0.18-0.332-0.384-0.608-0.63-0.853c-0.244-0.246-0.524-0.46-0.873-0.653
		c-0.348-0.194-0.764-0.367-1.304-0.491c-0.541-0.124-1.205-0.199-1.899-0.188c-0.695,0.01-1.423,0.105-2.052,0.282
		c-0.63,0.177-1.163,0.434-1.63,0.745c-0.468,0.31-0.869,0.674-1.224,1.11c-0.354,0.437-0.661,0.946-0.888,1.566
		c-0.226,0.619-0.372,1.348-0.416,1.974c-0.044,0.625,0.01,1.146,0.132,1.6c0.123,0.454,0.311,0.841,0.558,1.188
		c0.247,0.346,0.55,0.653,0.939,0.927c0.39,0.275,0.868,0.52,1.484,0.69c0.62,0.17,1.379,0.265,2.108,0.273
		c0.729,0.01,1.427-0.069,2.008-0.2c0.582-0.128,1.048-0.308,1.444-0.509c0.396-0.2,0.722-0.422,1.004-0.666
		c0.282-0.243,0.523-0.509,0.732-0.813c0.209-0.302,0.388-0.643,0.523-1H97.934z M95.068,158.749
		c0.052-0.247,0.134-0.488,0.233-0.686c0.101-0.198,0.217-0.354,0.337-0.48c0.123-0.128,0.25-0.229,0.387-0.311
		c0.273-0.168,0.629-0.251,0.973-0.255c0.171-0.002,0.332,0.017,0.47,0.05c0.136,0.033,0.251,0.08,0.353,0.136
		c0.102,0.056,0.19,0.121,0.271,0.202c0.079,0.081,0.152,0.174,0.216,0.292c0.064,0.117,0.123,0.257,0.161,0.438
		c0.036,0.179,0.054,0.397,0.045,0.614H95.068z"/>
	<path fill-rule="evenodd" clip-rule="evenodd" fill="#FFFFFF" d="M103.184,164.677h3.818l1.533-7.5h1.695l0.447-2.17h-1.676
		c0.025-0.184,0.062-0.366,0.104-0.506c0.039-0.14,0.083-0.239,0.121-0.317c0.041-0.077,0.075-0.133,0.109-0.182
		c0.122-0.164,0.225-0.229,0.34-0.289c0.046-0.022,0.096-0.043,0.157-0.062c0.129-0.044,0.327-0.065,0.522-0.068
		c0.103-0.002,0.205,0,0.283,0.005c0.143,0.007,0.223,0.019,0.321,0.034l0.492-2.298c-0.605-0.1-1.204-0.147-1.816-0.147
		c-0.417-0.001-0.833,0.023-1.167,0.065c-0.333,0.044-0.583,0.104-0.79,0.165c-0.209,0.063-0.375,0.129-0.521,0.2
		c-0.147,0.071-0.276,0.146-0.394,0.227c-0.232,0.161-0.432,0.342-0.641,0.613c-0.1,0.132-0.204,0.288-0.313,0.491
		c-0.11,0.204-0.227,0.455-0.34,0.807c-0.114,0.351-0.223,0.806-0.301,1.264h-1.389l-0.446,2.17h1.405L103.184,164.677z"/>
	<path fill-rule="evenodd" clip-rule="evenodd" fill="#FFFFFF" d="M117.779,161.834c-0.033,0.083-0.075,0.159-0.127,0.229
		c-0.052,0.071-0.11,0.134-0.183,0.194c-0.072,0.06-0.156,0.117-0.263,0.169c-0.107,0.053-0.234,0.1-0.396,0.135
		c-0.161,0.034-0.356,0.055-0.551,0.055c-0.196-0.001-0.394-0.022-0.557-0.06c-0.164-0.038-0.29-0.09-0.4-0.152
		c-0.109-0.059-0.201-0.128-0.28-0.21c-0.081-0.08-0.149-0.174-0.213-0.291c-0.062-0.115-0.117-0.254-0.152-0.438
		c-0.042-0.224-0.048-0.51-0.027-0.781h7.365c0.056-0.33,0.094-0.653,0.109-0.96c0.033-0.587-0.006-1.18-0.1-1.668
		c-0.096-0.489-0.248-0.875-0.426-1.206c-0.179-0.332-0.384-0.608-0.628-0.853c-0.244-0.246-0.526-0.46-0.875-0.653
		c-0.349-0.194-0.764-0.367-1.306-0.491c-0.539-0.124-1.202-0.199-1.897-0.188c-0.696,0.01-1.422,0.105-2.052,0.282
		c-0.629,0.177-1.161,0.434-1.632,0.745c-0.464,0.31-0.868,0.674-1.223,1.11c-0.354,0.437-0.66,0.946-0.888,1.566
		c-0.226,0.619-0.371,1.348-0.416,1.974c-0.045,0.625,0.012,1.146,0.133,1.6c0.124,0.454,0.311,0.841,0.557,1.188
		c0.247,0.346,0.551,0.653,0.942,0.927c0.389,0.275,0.867,0.52,1.485,0.69c0.618,0.17,1.378,0.265,2.106,0.273
		c0.729,0.01,1.426-0.069,2.008-0.2c0.583-0.128,1.048-0.308,1.444-0.509c0.397-0.2,0.722-0.422,1.004-0.666
		c0.284-0.243,0.524-0.509,0.733-0.813c0.209-0.302,0.388-0.643,0.522-1H117.779z M114.915,158.749
		c0.05-0.247,0.134-0.488,0.232-0.686c0.099-0.198,0.215-0.354,0.338-0.48c0.121-0.128,0.248-0.229,0.386-0.311
		c0.273-0.168,0.629-0.251,0.972-0.255c0.172-0.002,0.333,0.017,0.47,0.05c0.139,0.033,0.252,0.08,0.355,0.136
		c0.1,0.056,0.188,0.121,0.268,0.202c0.082,0.081,0.153,0.174,0.218,0.292c0.063,0.117,0.122,0.257,0.159,0.438
		c0.038,0.179,0.054,0.397,0.046,0.614H114.915z"/>
	<path fill-rule="evenodd" clip-rule="evenodd" fill="#FFFFFF" d="M122.705,164.677h3.876l0.756-3.698
		c0.067-0.365,0.157-0.726,0.246-0.993c0.089-0.265,0.177-0.438,0.253-0.574c0.076-0.136,0.142-0.235,0.208-0.317
		c0.219-0.272,0.401-0.387,0.603-0.487c0.081-0.038,0.169-0.073,0.271-0.104c0.102-0.03,0.222-0.058,0.37-0.079
		c0.179-0.023,0.414-0.037,0.614-0.028c0.041,0.003,0.085,0.005,0.217,0.017c0.13,0.011,0.351,0.032,0.57,0.055l0.76-3.714
		c-0.095-0.012-0.192-0.021-0.261-0.027c-0.126-0.01-0.178-0.011-0.25-0.012c-0.524,0.003-1.014,0.104-1.486,0.348
		c-0.235,0.119-0.475,0.271-0.725,0.492c-0.248,0.219-0.506,0.505-0.73,0.814l0.279-1.362h-3.609L122.705,164.677z"/>
	<path fill-rule="evenodd" clip-rule="evenodd" fill="#FFFFFF" d="M131.203,164.677h3.874l0.759-3.698
		c0.067-0.365,0.158-0.726,0.247-0.993c0.089-0.265,0.176-0.438,0.252-0.574c0.077-0.136,0.142-0.235,0.207-0.317
		c0.22-0.272,0.402-0.387,0.604-0.487c0.08-0.038,0.168-0.073,0.27-0.104c0.104-0.03,0.223-0.058,0.371-0.079
		c0.179-0.023,0.413-0.037,0.614-0.028c0.04,0.003,0.084,0.005,0.217,0.017c0.132,0.011,0.352,0.032,0.571,0.055l0.759-3.714
		c-0.096-0.012-0.192-0.021-0.261-0.027c-0.125-0.01-0.175-0.011-0.25-0.012c-0.523,0.003-1.013,0.104-1.486,0.348
		c-0.234,0.119-0.475,0.271-0.724,0.492c-0.25,0.219-0.508,0.505-0.73,0.814l0.278-1.362h-3.608L131.203,164.677z"/>
	<path fill-rule="evenodd" clip-rule="evenodd" fill="#FFFFFF" d="M146.479,164.677h3.893l0.015-0.272
		c-0.067-0.079-0.125-0.165-0.171-0.259c-0.046-0.092-0.078-0.186-0.098-0.305c-0.021-0.117-0.031-0.255-0.021-0.395
		c0.002-0.033,0.004-0.065,0.011-0.118c0.007-0.051,0.016-0.122,0.037-0.238c0.022-0.117,0.057-0.278,0.091-0.439l0.762-3.487
		c0.052-0.234,0.099-0.47,0.132-0.666c0.037-0.195,0.057-0.351,0.071-0.474c0.016-0.122,0.023-0.208,0.029-0.297
		c0.012-0.232-0.002-0.468-0.036-0.678c-0.037-0.21-0.094-0.393-0.169-0.563c-0.077-0.169-0.169-0.324-0.286-0.472
		c-0.117-0.146-0.255-0.289-0.434-0.426c-0.177-0.138-0.396-0.272-0.689-0.404c-0.293-0.133-0.666-0.263-1.181-0.355
		c-0.517-0.092-1.172-0.146-1.849-0.147c-0.681,0-1.378,0.054-1.933,0.143c-0.556,0.09-0.968,0.217-1.304,0.348
		c-0.337,0.132-0.596,0.266-0.819,0.407c-0.221,0.141-0.405,0.287-0.567,0.444c-0.164,0.156-0.306,0.323-0.434,0.509
		c-0.129,0.186-0.243,0.388-0.345,0.63c-0.1,0.24-0.184,0.517-0.242,0.799h3.801c0.017-0.1,0.042-0.2,0.074-0.282
		c0.031-0.081,0.065-0.146,0.102-0.202c0.039-0.058,0.077-0.106,0.121-0.15c0.044-0.043,0.092-0.083,0.149-0.12
		c0.057-0.037,0.121-0.072,0.204-0.104s0.183-0.063,0.316-0.086c0.132-0.023,0.299-0.037,0.473-0.036
		c0.174,0.003,0.355,0.021,0.498,0.051s0.248,0.074,0.331,0.119c0.083,0.044,0.144,0.09,0.192,0.138
		c0.163,0.169,0.192,0.317,0.187,0.496c-0.003,0.055-0.01,0.107-0.02,0.155c-0.031,0.135-0.08,0.245-0.209,0.353
		c-0.026,0.023-0.058,0.045-0.096,0.068c-0.042,0.023-0.09,0.047-0.156,0.073c-0.066,0.027-0.148,0.056-0.491,0.104
		c-0.345,0.05-0.951,0.121-1.559,0.177c-0.688,0.058-1.375,0.159-1.898,0.272c-0.521,0.113-0.877,0.24-1.159,0.355
		c-0.282,0.117-0.49,0.223-0.663,0.326c-0.175,0.104-0.313,0.208-0.437,0.31c-0.122,0.105-0.229,0.21-0.323,0.32
		c-0.096,0.111-0.18,0.227-0.257,0.352c-0.076,0.126-0.146,0.261-0.208,0.417c-0.063,0.155-0.119,0.331-0.163,0.538
		c-0.044,0.208-0.075,0.444-0.088,0.684c-0.016,0.289,0.014,0.582,0.085,0.843c0.07,0.261,0.182,0.492,0.333,0.7
		c0.148,0.21,0.337,0.398,0.575,0.567c0.24,0.169,0.534,0.319,0.905,0.422c0.374,0.104,0.827,0.162,1.248,0.169
		c0.42,0.008,0.811-0.038,1.201-0.12c0.388-0.084,0.776-0.207,1.18-0.388c0.402-0.181,0.82-0.421,1.208-0.7L146.479,164.677z
		 M146.881,160.38c-0.037,0.336-0.117,0.67-0.224,0.937c-0.106,0.269-0.239,0.468-0.375,0.633c-0.14,0.164-0.286,0.29-0.444,0.393
		c-0.16,0.104-0.333,0.182-0.535,0.239c-0.202,0.055-0.432,0.087-0.661,0.087c-0.144,0-0.288-0.019-0.405-0.052
		c-0.117-0.031-0.204-0.077-0.277-0.126c-0.071-0.05-0.126-0.104-0.169-0.166c-0.092-0.125-0.126-0.282-0.118-0.441
		c0.003-0.073,0.013-0.148,0.026-0.208c0.038-0.177,0.102-0.317,0.259-0.456c0.034-0.029,0.07-0.057,0.122-0.088
		c0.051-0.032,0.114-0.067,0.229-0.111c0.112-0.044,0.271-0.097,0.708-0.207C145.455,160.705,146.167,160.536,146.881,160.38z"/>
	<polygon fill-rule="evenodd" clip-rule="evenodd" fill="#FFFFFF" points="151.854,164.677 155.787,164.677 158.356,151.595 
		154.442,151.595 	"/>
	<path fill-rule="evenodd" clip-rule="evenodd" fill="#FFFFFF" d="M158.286,161.453l-0.004,0.089c-0.015,0.253,0,0.509,0.041,0.74
		c0.04,0.233,0.106,0.442,0.194,0.637c0.088,0.195,0.197,0.377,0.334,0.55c0.137,0.174,0.301,0.34,0.507,0.501
		c0.209,0.161,0.461,0.316,0.788,0.466c0.33,0.148,0.734,0.29,1.267,0.391c0.534,0.099,1.193,0.159,1.84,0.159
		c0.648,0,1.283-0.057,1.801-0.153c0.516-0.095,0.917-0.23,1.246-0.373c0.33-0.142,0.588-0.292,0.808-0.449
		c0.221-0.158,0.398-0.321,0.553-0.494c0.156-0.172,0.285-0.354,0.396-0.552c0.112-0.199,0.202-0.414,0.272-0.658
		c0.125-0.481,0.21-1.052,0.02-1.587c-0.088-0.263-0.229-0.521-0.428-0.753c-0.2-0.233-0.457-0.443-0.741-0.601
		c-0.131-0.071-0.264-0.138-0.446-0.221c-0.178-0.083-0.405-0.185-0.777-0.307c-0.373-0.124-0.891-0.271-1.414-0.399
		c-0.283-0.072-0.563-0.164-0.754-0.243c-0.19-0.082-0.291-0.149-0.363-0.202c-0.074-0.053-0.119-0.089-0.155-0.122
		c-0.171-0.172-0.187-0.3-0.183-0.453c0.012-0.166,0.061-0.335,0.271-0.491c0.046-0.033,0.1-0.063,0.169-0.095
		c0.069-0.029,0.153-0.057,0.259-0.077c0.108-0.021,0.239-0.035,0.387-0.032c0.147,0.001,0.312,0.02,0.445,0.048
		c0.132,0.029,0.234,0.071,0.319,0.117c0.083,0.047,0.148,0.096,0.202,0.149c0.055,0.053,0.096,0.109,0.129,0.173
		c0.088,0.154,0.109,0.354,0.09,0.547h3.592c-0.001-0.246-0.027-0.493-0.076-0.71c-0.049-0.219-0.118-0.409-0.207-0.582
		c-0.087-0.174-0.19-0.333-0.318-0.483c-0.126-0.152-0.277-0.292-0.463-0.428c-0.185-0.138-0.409-0.273-0.702-0.399
		c-0.293-0.128-0.66-0.25-1.148-0.338c-0.488-0.084-1.101-0.136-1.713-0.138c-0.61-0.002-1.222,0.046-1.714,0.125
		c-0.492,0.079-0.864,0.188-1.168,0.3c-0.304,0.113-0.541,0.228-0.738,0.348c-0.198,0.118-0.359,0.241-0.497,0.366
		c-0.14,0.125-0.257,0.251-0.359,0.388c-0.103,0.134-0.19,0.274-0.265,0.429c-0.076,0.155-0.137,0.323-0.184,0.509
		c-0.048,0.188-0.077,0.394-0.09,0.58c-0.012,0.186-0.008,0.353,0.011,0.499c0.017,0.147,0.048,0.276,0.084,0.395
		c0.081,0.248,0.187,0.434,0.365,0.649c0.094,0.11,0.209,0.23,0.419,0.388c0.209,0.155,0.507,0.349,1.052,0.595
		c0.546,0.246,1.336,0.543,2.141,0.795c0.209,0.063,0.415,0.144,0.561,0.215c0.146,0.073,0.232,0.136,0.297,0.19
		c0.173,0.14,0.227,0.238,0.267,0.348c0.065,0.221,0.042,0.482-0.225,0.722c-0.058,0.052-0.129,0.102-0.217,0.149
		c-0.089,0.045-0.197,0.087-0.327,0.118c-0.128,0.029-0.28,0.046-0.428,0.046c-0.146,0.001-0.29-0.015-0.41-0.042
		c-0.121-0.029-0.218-0.069-0.303-0.114c-0.085-0.047-0.156-0.099-0.22-0.162c-0.063-0.063-0.12-0.136-0.17-0.228
		c-0.05-0.089-0.096-0.199-0.125-0.341c-0.029-0.141-0.044-0.318-0.039-0.493H158.286z"/>
	<path fill-rule="evenodd" clip-rule="evenodd" fill="#FFFFFF" d="M177.054,164.677h7.479c0.716,0,1.434-0.061,2.004-0.161
		c0.572-0.104,0.997-0.246,1.342-0.396c0.347-0.15,0.615-0.305,0.843-0.469c0.229-0.164,0.417-0.335,0.583-0.521
		c0.167-0.187,0.309-0.387,0.437-0.617c0.127-0.229,0.239-0.488,0.324-0.797c0.083-0.309,0.141-0.669,0.163-1.031
		c0.021-0.397-0.035-0.8-0.156-1.148s-0.306-0.641-0.547-0.885c-0.24-0.246-0.536-0.445-0.854-0.58
		c0.313-0.16,0.608-0.355,0.851-0.561c0.24-0.206,0.424-0.421,0.585-0.66c0.161-0.238,0.294-0.5,0.396-0.829
		c0.103-0.325,0.173-0.717,0.195-1.11c0.013-0.247,0.008-0.495-0.018-0.71c-0.023-0.213-0.066-0.394-0.116-0.553
		c-0.05-0.159-0.111-0.298-0.18-0.423c-0.07-0.127-0.149-0.242-0.239-0.353c-0.092-0.109-0.194-0.213-0.314-0.313
		c-0.123-0.101-0.262-0.197-0.44-0.295c-0.177-0.097-0.389-0.194-0.683-0.293c-0.294-0.099-0.671-0.199-1.212-0.271
		c-0.542-0.071-1.252-0.108-1.96-0.108h-5.704L177.054,164.677z M181.94,161.617l0.512-2.44h1.871c0.266,0,0.533,0.01,0.731,0.036
		c0.198,0.025,0.325,0.06,0.425,0.092c0.098,0.034,0.167,0.064,0.226,0.097c0.057,0.031,0.103,0.062,0.143,0.095
		c0.149,0.13,0.196,0.232,0.238,0.357c0.017,0.053,0.032,0.113,0.039,0.188c0.017,0.136,0.009,0.338-0.027,0.518
		c-0.019,0.083-0.039,0.152-0.063,0.214c-0.063,0.155-0.138,0.282-0.284,0.415c-0.041,0.036-0.085,0.073-0.138,0.107
		c-0.052,0.034-0.112,0.067-0.184,0.1c-0.07,0.035-0.154,0.065-0.266,0.098c-0.108,0.033-0.246,0.064-0.431,0.086
		c-0.186,0.023-0.422,0.036-0.657,0.036H181.94z M182.928,156.823l0.517-2.258h1.283c0.288,0,0.578,0.007,0.797,0.027
		c0.217,0.02,0.367,0.048,0.477,0.079c0.108,0.031,0.18,0.067,0.235,0.097c0.058,0.031,0.098,0.059,0.133,0.087
		c0.134,0.118,0.17,0.204,0.208,0.313c0.014,0.049,0.028,0.106,0.034,0.173c0.016,0.127,0.006,0.321-0.029,0.497
		c-0.016,0.08-0.038,0.148-0.06,0.206c-0.059,0.146-0.128,0.263-0.262,0.388c-0.039,0.034-0.081,0.067-0.127,0.098
		c-0.05,0.032-0.104,0.062-0.169,0.092c-0.065,0.029-0.142,0.06-0.244,0.089c-0.1,0.03-0.227,0.059-0.402,0.08
		s-0.398,0.033-0.622,0.033H182.928z"/>
	<path fill-rule="evenodd" clip-rule="evenodd" fill="#FFFFFF" d="M198.296,164.677h3.571l2-9.67h-3.913l-1.109,5.26
		c-0.051,0.236-0.119,0.469-0.194,0.649c-0.073,0.181-0.149,0.309-0.221,0.411c-0.15,0.215-0.279,0.323-0.42,0.416
		c-0.074,0.047-0.15,0.086-0.238,0.12c-0.088,0.034-0.184,0.064-0.299,0.084c-0.113,0.021-0.248,0.034-0.389,0.033
		c-0.139-0.001-0.285-0.018-0.406-0.044c-0.122-0.028-0.216-0.067-0.298-0.111c-0.079-0.046-0.147-0.096-0.204-0.154
		c-0.058-0.058-0.104-0.121-0.144-0.196c-0.042-0.076-0.076-0.162-0.098-0.269c-0.062-0.303-0.001-0.689,0.071-1.025l1.067-5.173
		h-3.933l-1.195,5.805c-0.053,0.28-0.089,0.576-0.103,0.856c-0.025,0.43,0.013,0.868,0.105,1.229c0.09,0.361,0.23,0.646,0.398,0.887
		c0.17,0.24,0.366,0.438,0.604,0.608c0.239,0.171,0.521,0.315,0.877,0.417c0.355,0.1,0.787,0.158,1.213,0.158
		c0.426-0.001,0.85-0.059,1.255-0.174s0.791-0.284,1.163-0.521c0.372-0.236,0.729-0.538,1.04-0.881L198.296,164.677z"/>
	<path fill-rule="evenodd" clip-rule="evenodd" fill="#FFFFFF" d="M203.593,164.677h3.934l2-9.67h-3.932L203.593,164.677z
		 M205.744,153.966h3.97l0.534-2.699h-3.933L205.744,153.966z"/>
	<polygon fill-rule="evenodd" clip-rule="evenodd" fill="#FFFFFF" points="209.67,164.677 213.604,164.677 216.172,151.595 
		212.26,151.595 	"/>
	<path fill-rule="evenodd" clip-rule="evenodd" fill="#FFFFFF" d="M222.214,164.658l0.577-2.807c-0.04,0.004-0.081,0.008-0.123,0.01
		c-0.092,0.008-0.229,0.01-0.372,0.009c-0.145,0.001-0.291-0.007-0.399-0.021c-0.11-0.015-0.185-0.035-0.245-0.054
		c-0.06-0.02-0.102-0.04-0.137-0.061c-0.083-0.044-0.165-0.123-0.201-0.195c-0.015-0.027-0.028-0.057-0.041-0.09
		c-0.023-0.069-0.033-0.181-0.027-0.286c0.001-0.054,0.006-0.102,0.008-0.138c0.007-0.065,0.015-0.096,0.026-0.136l0.773-3.711
		h1.542l0.445-2.17h-1.54l0.618-2.959h-3.818l-0.6,2.959h-1.429l-0.465,2.17h1.427l-0.88,4.307
		c-0.039,0.183-0.078,0.367-0.104,0.511c-0.026,0.146-0.041,0.253-0.051,0.34c-0.011,0.088-0.015,0.155-0.019,0.223
		c-0.013,0.213,0.004,0.43,0.042,0.62c0.041,0.188,0.104,0.352,0.183,0.5c0.082,0.146,0.179,0.276,0.303,0.4
		c0.123,0.122,0.271,0.235,0.465,0.341c0.193,0.107,0.43,0.206,0.746,0.277c0.318,0.069,0.711,0.111,1.101,0.111
		c0.206,0,0.411-0.006,0.634-0.016c0.224-0.01,0.467-0.023,0.729-0.046C221.647,164.723,221.93,164.693,222.214,164.658z"/>
	<path fill-rule="evenodd" clip-rule="evenodd" fill="#FFFFFF" d="M231.804,158.896c-0.037,0.76,0.033,1.511,0.198,2.152
		c0.165,0.642,0.426,1.173,0.75,1.632c0.325,0.461,0.713,0.853,1.19,1.19c0.477,0.341,1.043,0.63,1.752,0.829
		c0.708,0.203,1.559,0.315,2.371,0.321c0.813,0.007,1.586-0.094,2.287-0.273c0.699-0.182,1.325-0.442,1.912-0.787
		c0.592-0.347,1.148-0.78,1.599-1.218c0.453-0.437,0.803-0.879,1.114-1.39c0.313-0.51,0.585-1.087,0.792-1.759
		s0.345-1.44,0.381-2.21c0.034-0.77-0.035-1.543-0.2-2.194s-0.426-1.183-0.747-1.64c-0.323-0.457-0.705-0.84-1.175-1.175
		c-0.473-0.336-1.034-0.623-1.745-0.824c-0.711-0.2-1.572-0.311-2.385-0.317c-0.813-0.007-1.577,0.091-2.268,0.268
		c-0.692,0.177-1.311,0.43-1.889,0.762c-0.579,0.332-1.12,0.741-1.577,1.181c-0.455,0.44-0.831,0.91-1.16,1.444
		c-0.326,0.534-0.606,1.127-0.818,1.808C231.977,157.374,231.836,158.14,231.804,158.896z M239.598,154.492
		c0.233,0,0.47,0.029,0.674,0.077c0.204,0.05,0.377,0.121,0.531,0.207c0.151,0.085,0.286,0.187,0.405,0.307
		c0.121,0.121,0.225,0.263,0.318,0.434c0.095,0.173,0.172,0.376,0.224,0.63c0.05,0.251,0.075,0.554,0.041,1.006
		c-0.034,0.453-0.123,1.054-0.251,1.551c-0.129,0.498-0.299,0.888-0.473,1.208c-0.171,0.319-0.349,0.567-0.526,0.771
		c-0.547,0.617-1.073,0.863-1.601,0.981c-0.188,0.04-0.383,0.06-0.588,0.06c-0.203,0-0.416-0.02-0.597-0.057
		c-0.182-0.038-0.336-0.09-0.47-0.153c-0.134-0.063-0.251-0.134-0.358-0.219s-0.204-0.183-0.293-0.3
		c-0.089-0.115-0.172-0.251-0.248-0.424c-0.073-0.171-0.141-0.38-0.183-0.651c-0.04-0.272-0.054-0.608-0.036-0.941
		c0.038-0.613,0.146-1.222,0.297-1.725c0.151-0.502,0.349-0.896,0.551-1.213c0.411-0.638,0.835-0.984,1.253-1.214
		C238.706,154.593,239.145,154.494,239.598,154.492z"/>
	<path fill-rule="evenodd" clip-rule="evenodd" fill="#FFFFFF" d="M253.559,164.677h3.571l2.001-9.67h-3.914l-1.109,5.26
		c-0.049,0.236-0.12,0.469-0.194,0.649c-0.072,0.181-0.149,0.309-0.221,0.411c-0.151,0.215-0.278,0.323-0.42,0.416
		c-0.073,0.047-0.15,0.086-0.238,0.12c-0.086,0.034-0.184,0.064-0.299,0.084c-0.116,0.021-0.249,0.034-0.389,0.033
		c-0.139-0.001-0.286-0.018-0.406-0.044c-0.121-0.028-0.216-0.067-0.298-0.111c-0.081-0.046-0.146-0.096-0.203-0.154
		c-0.056-0.058-0.105-0.121-0.146-0.196c-0.042-0.076-0.075-0.162-0.096-0.269c-0.061-0.303-0.002-0.689,0.071-1.025l1.066-5.173
		h-3.932l-1.196,5.805c-0.053,0.28-0.089,0.576-0.103,0.856c-0.025,0.43,0.013,0.868,0.104,1.229
		c0.092,0.361,0.232,0.646,0.401,0.887c0.169,0.24,0.365,0.438,0.604,0.608c0.239,0.171,0.521,0.315,0.877,0.417
		c0.355,0.1,0.786,0.158,1.212,0.158c0.426-0.001,0.851-0.059,1.256-0.174c0.404-0.115,0.79-0.284,1.163-0.521
		c0.371-0.236,0.728-0.538,1.038-0.881L253.559,164.677z"/>
	<path fill-rule="evenodd" clip-rule="evenodd" fill="#FFFFFF" d="M258.802,164.677h3.875l0.759-3.698
		c0.065-0.365,0.157-0.726,0.246-0.993c0.088-0.265,0.176-0.438,0.252-0.574c0.076-0.136,0.143-0.235,0.207-0.317
		c0.22-0.272,0.403-0.387,0.604-0.487c0.08-0.038,0.167-0.073,0.27-0.104c0.104-0.03,0.223-0.058,0.37-0.079
		c0.18-0.023,0.414-0.037,0.616-0.028c0.04,0.003,0.083,0.005,0.215,0.017c0.133,0.011,0.352,0.032,0.572,0.055l0.759-3.714
		c-0.095-0.012-0.192-0.021-0.262-0.027c-0.125-0.01-0.176-0.011-0.248-0.012c-0.524,0.003-1.014,0.104-1.487,0.348
		c-0.235,0.119-0.475,0.271-0.725,0.492c-0.249,0.219-0.507,0.505-0.731,0.814l0.28-1.362h-3.609L258.802,164.677z"/>
	<path fill-rule="evenodd" clip-rule="evenodd" fill="#FFFFFF" d="M274.439,164.677h7.48c0.714,0,1.433-0.061,2.003-0.161
		c0.571-0.104,0.996-0.246,1.343-0.396c0.345-0.15,0.612-0.305,0.84-0.469c0.23-0.164,0.418-0.335,0.585-0.521
		c0.166-0.187,0.309-0.387,0.437-0.617c0.126-0.229,0.238-0.488,0.323-0.797c0.086-0.309,0.143-0.669,0.163-1.031
		c0.021-0.397-0.035-0.8-0.156-1.148c-0.119-0.348-0.305-0.641-0.545-0.885c-0.242-0.246-0.536-0.445-0.857-0.58
		c0.314-0.16,0.61-0.355,0.851-0.561c0.241-0.206,0.425-0.421,0.586-0.66c0.16-0.238,0.296-0.5,0.397-0.829
		c0.102-0.325,0.171-0.717,0.194-1.11c0.013-0.247,0.007-0.495-0.017-0.71c-0.025-0.213-0.065-0.394-0.117-0.553
		c-0.05-0.159-0.111-0.298-0.181-0.423c-0.067-0.127-0.147-0.242-0.239-0.353c-0.089-0.109-0.193-0.213-0.314-0.313
		c-0.121-0.101-0.261-0.197-0.438-0.295c-0.178-0.097-0.392-0.194-0.685-0.293c-0.293-0.099-0.669-0.199-1.212-0.271
		c-0.543-0.071-1.25-0.108-1.96-0.108h-5.704L274.439,164.677z M279.324,161.617l0.51-2.44h1.87c0.267,0,0.534,0.01,0.731,0.036
		c0.198,0.025,0.328,0.06,0.426,0.092c0.1,0.034,0.167,0.064,0.227,0.097c0.058,0.031,0.102,0.062,0.141,0.095
		c0.15,0.13,0.197,0.232,0.239,0.357c0.017,0.053,0.031,0.113,0.041,0.188c0.015,0.136,0.008,0.338-0.031,0.518
		c-0.016,0.083-0.039,0.152-0.063,0.214c-0.061,0.155-0.137,0.282-0.281,0.415c-0.042,0.036-0.088,0.073-0.141,0.107
		c-0.051,0.034-0.11,0.067-0.182,0.1c-0.071,0.035-0.154,0.065-0.264,0.098c-0.111,0.033-0.246,0.064-0.434,0.086
		c-0.186,0.023-0.42,0.036-0.657,0.036H279.324z M280.31,156.823l0.521-2.258h1.28c0.288,0,0.578,0.007,0.796,0.027
		c0.22,0.02,0.367,0.048,0.477,0.079c0.109,0.031,0.183,0.067,0.238,0.097c0.056,0.031,0.096,0.059,0.13,0.087
		c0.136,0.118,0.17,0.204,0.21,0.313c0.014,0.049,0.026,0.106,0.034,0.173c0.015,0.127,0.005,0.321-0.03,0.497
		c-0.017,0.08-0.037,0.148-0.061,0.206c-0.058,0.146-0.127,0.263-0.262,0.388c-0.039,0.034-0.08,0.067-0.126,0.098
		c-0.049,0.032-0.102,0.062-0.167,0.092c-0.064,0.029-0.141,0.06-0.243,0.089s-0.229,0.059-0.403,0.08
		c-0.174,0.021-0.399,0.033-0.622,0.033H280.31z"/>
	<path fill-rule="evenodd" clip-rule="evenodd" fill="#FFFFFF" d="M295.68,164.677h3.57l2.002-9.67h-3.913l-1.111,5.26
		c-0.049,0.236-0.119,0.469-0.191,0.649c-0.074,0.181-0.15,0.309-0.223,0.411c-0.151,0.215-0.279,0.323-0.419,0.416
		c-0.074,0.047-0.153,0.086-0.239,0.12c-0.086,0.034-0.184,0.064-0.299,0.084c-0.115,0.021-0.248,0.034-0.388,0.033
		s-0.286-0.018-0.407-0.044c-0.121-0.028-0.215-0.067-0.296-0.111c-0.082-0.046-0.147-0.096-0.205-0.154s-0.105-0.121-0.145-0.196
		c-0.042-0.076-0.075-0.162-0.097-0.269c-0.061-0.303-0.002-0.689,0.071-1.025l1.067-5.173h-3.932l-1.196,5.805
		c-0.055,0.28-0.09,0.576-0.105,0.856c-0.023,0.43,0.017,0.868,0.107,1.229s0.23,0.646,0.399,0.887
		c0.168,0.24,0.365,0.438,0.603,0.608c0.24,0.171,0.521,0.315,0.877,0.417c0.355,0.1,0.786,0.158,1.212,0.158
		c0.427-0.001,0.852-0.059,1.256-0.174c0.405-0.115,0.793-0.284,1.163-0.521c0.374-0.236,0.73-0.538,1.04-0.881L295.68,164.677z"/>
	<path fill-rule="evenodd" clip-rule="evenodd" fill="#FFFFFF" d="M301.675,161.453l-0.005,0.089
		c-0.014,0.253,0.002,0.509,0.042,0.74c0.039,0.233,0.106,0.442,0.194,0.637c0.087,0.195,0.196,0.377,0.334,0.55
		c0.136,0.174,0.299,0.34,0.509,0.501c0.205,0.161,0.458,0.316,0.787,0.466c0.326,0.148,0.733,0.29,1.265,0.391
		c0.534,0.099,1.193,0.159,1.841,0.159c0.647,0,1.283-0.057,1.8-0.153c0.518-0.095,0.918-0.23,1.247-0.373
		c0.331-0.142,0.588-0.292,0.809-0.449c0.219-0.158,0.399-0.321,0.553-0.494c0.155-0.172,0.284-0.354,0.395-0.552
		c0.11-0.199,0.203-0.414,0.272-0.658c0.126-0.481,0.211-1.052,0.021-1.587c-0.088-0.263-0.23-0.521-0.43-0.753
		c-0.198-0.233-0.455-0.443-0.74-0.601c-0.129-0.071-0.264-0.138-0.444-0.221c-0.181-0.083-0.407-0.185-0.778-0.307
		c-0.372-0.124-0.891-0.271-1.413-0.399c-0.284-0.072-0.564-0.164-0.754-0.243c-0.19-0.082-0.292-0.149-0.364-0.202
		c-0.074-0.053-0.12-0.089-0.155-0.122c-0.17-0.172-0.186-0.3-0.182-0.453c0.011-0.166,0.062-0.335,0.271-0.491
		c0.046-0.033,0.099-0.063,0.168-0.095c0.07-0.029,0.153-0.057,0.261-0.077c0.106-0.021,0.237-0.035,0.385-0.032
		c0.148,0.001,0.313,0.02,0.446,0.048c0.132,0.029,0.236,0.071,0.32,0.117c0.083,0.047,0.147,0.096,0.2,0.149
		c0.056,0.053,0.096,0.109,0.131,0.173c0.09,0.154,0.11,0.354,0.091,0.547h3.592c0-0.246-0.028-0.493-0.077-0.71
		c-0.049-0.219-0.117-0.409-0.205-0.582c-0.088-0.174-0.191-0.333-0.319-0.483c-0.127-0.152-0.276-0.292-0.463-0.428
		c-0.185-0.138-0.409-0.273-0.702-0.399c-0.295-0.128-0.658-0.25-1.147-0.338c-0.489-0.084-1.101-0.136-1.713-0.138
		c-0.61-0.002-1.223,0.046-1.714,0.125c-0.492,0.079-0.866,0.188-1.167,0.3c-0.305,0.113-0.542,0.228-0.739,0.348
		c-0.2,0.118-0.36,0.241-0.499,0.366c-0.139,0.125-0.255,0.251-0.357,0.388c-0.102,0.134-0.189,0.274-0.265,0.429
		c-0.077,0.155-0.138,0.323-0.187,0.509c-0.045,0.188-0.076,0.394-0.087,0.58c-0.013,0.186-0.007,0.353,0.011,0.499
		c0.017,0.147,0.046,0.276,0.084,0.395c0.082,0.248,0.186,0.434,0.363,0.649c0.093,0.11,0.211,0.23,0.42,0.388
		c0.208,0.155,0.508,0.349,1.052,0.595c0.545,0.246,1.336,0.543,2.14,0.795c0.209,0.063,0.416,0.144,0.562,0.215
		c0.145,0.073,0.232,0.136,0.297,0.19c0.172,0.14,0.227,0.238,0.267,0.348c0.064,0.221,0.038,0.482-0.225,0.722
		c-0.058,0.052-0.131,0.102-0.219,0.149c-0.088,0.045-0.196,0.087-0.324,0.118c-0.13,0.029-0.28,0.046-0.427,0.046
		c-0.148,0.001-0.291-0.015-0.412-0.042c-0.119-0.029-0.219-0.069-0.303-0.114c-0.083-0.047-0.154-0.099-0.218-0.162
		c-0.065-0.063-0.121-0.136-0.171-0.228c-0.05-0.089-0.094-0.199-0.125-0.341c-0.029-0.141-0.045-0.318-0.039-0.493H301.675z"/>
	<path fill-rule="evenodd" clip-rule="evenodd" fill="#FFFFFF" d="M312.99,164.677h3.934l1.999-9.67h-3.932L312.99,164.677z
		 M315.139,153.966h3.972l0.532-2.699h-3.932L315.139,153.966z"/>
	<path fill-rule="evenodd" clip-rule="evenodd" fill="#FFFFFF" d="M318.81,164.677h3.932l1.046-5.15
		c0.053-0.261,0.126-0.521,0.207-0.723c0.078-0.2,0.16-0.344,0.24-0.458c0.254-0.365,0.465-0.48,0.693-0.579
		c0.087-0.034,0.185-0.063,0.294-0.084c0.112-0.021,0.24-0.032,0.367-0.032c0.156,0,0.312,0.021,0.444,0.061
		c0.13,0.039,0.238,0.092,0.327,0.156c0.09,0.064,0.164,0.138,0.223,0.221c0.128,0.179,0.182,0.409,0.168,0.639
		c0,0.021-0.001,0.041-0.006,0.075c-0.003,0.035-0.009,0.082-0.021,0.151c-0.013,0.073-0.034,0.167-0.056,0.26l-1.083,5.463h3.932
		l1.107-5.568c0.038-0.185,0.075-0.371,0.101-0.533s0.045-0.303,0.058-0.422c0.013-0.12,0.021-0.218,0.027-0.32
		c0.021-0.376-0.018-0.758-0.102-1.085c-0.084-0.326-0.217-0.597-0.382-0.83c-0.163-0.234-0.361-0.432-0.603-0.604
		c-0.24-0.173-0.526-0.318-0.881-0.419c-0.357-0.101-0.782-0.158-1.2-0.16c-0.419-0.002-0.829,0.052-1.217,0.153
		c-0.388,0.102-0.753,0.251-1.131,0.481c-0.377,0.229-0.766,0.538-1.111,0.886l0.237-1.249h-3.589L318.81,164.677z"/>
	<path fill-rule="evenodd" clip-rule="evenodd" fill="#FFFFFF" d="M339.246,161.834c-0.032,0.083-0.075,0.159-0.126,0.229
		c-0.05,0.071-0.109,0.134-0.183,0.194c-0.073,0.06-0.156,0.117-0.263,0.169c-0.108,0.053-0.234,0.1-0.396,0.135
		c-0.162,0.034-0.357,0.055-0.551,0.055c-0.197-0.001-0.394-0.022-0.558-0.06s-0.291-0.09-0.399-0.152
		c-0.109-0.059-0.201-0.128-0.28-0.21c-0.08-0.08-0.149-0.174-0.212-0.291c-0.062-0.115-0.117-0.254-0.151-0.438
		c-0.044-0.224-0.048-0.51-0.027-0.781h7.364c0.057-0.33,0.095-0.653,0.112-0.96c0.031-0.587-0.007-1.18-0.102-1.668
		c-0.094-0.489-0.248-0.875-0.426-1.206c-0.179-0.332-0.386-0.608-0.629-0.853c-0.243-0.246-0.525-0.46-0.873-0.653
		c-0.35-0.194-0.766-0.367-1.306-0.491c-0.54-0.124-1.204-0.199-1.899-0.188c-0.696,0.01-1.421,0.105-2.05,0.282
		c-0.63,0.177-1.164,0.434-1.63,0.745c-0.468,0.31-0.871,0.674-1.226,1.11c-0.354,0.437-0.662,0.946-0.886,1.566
		c-0.227,0.619-0.373,1.348-0.418,1.974c-0.043,0.625,0.013,1.146,0.134,1.6c0.123,0.454,0.311,0.841,0.557,1.188
		c0.248,0.346,0.55,0.653,0.94,0.927c0.391,0.275,0.867,0.52,1.485,0.69c0.617,0.17,1.377,0.265,2.107,0.273
		c0.728,0.01,1.426-0.069,2.008-0.2c0.582-0.128,1.048-0.308,1.445-0.509c0.396-0.2,0.72-0.422,1.003-0.666
		c0.282-0.243,0.524-0.509,0.733-0.813c0.209-0.302,0.388-0.643,0.522-1H339.246z M336.381,158.749
		c0.051-0.247,0.134-0.488,0.234-0.686c0.1-0.198,0.215-0.354,0.337-0.48c0.121-0.128,0.248-0.229,0.385-0.311
		c0.274-0.168,0.63-0.251,0.972-0.255c0.172-0.002,0.334,0.017,0.471,0.05c0.138,0.033,0.252,0.08,0.354,0.136
		c0.103,0.056,0.19,0.121,0.271,0.202c0.08,0.081,0.15,0.174,0.217,0.292c0.063,0.117,0.121,0.257,0.158,0.438
		c0.038,0.179,0.056,0.397,0.048,0.614H336.381z"/>
	<path fill-rule="evenodd" clip-rule="evenodd" fill="#FFFFFF" d="M344.522,161.453l-0.005,0.089
		c-0.014,0.253,0.001,0.509,0.042,0.74c0.04,0.233,0.106,0.442,0.194,0.637c0.088,0.195,0.197,0.377,0.334,0.55
		c0.138,0.174,0.301,0.34,0.509,0.501c0.208,0.161,0.459,0.316,0.786,0.466c0.329,0.148,0.734,0.29,1.267,0.391
		c0.534,0.099,1.193,0.159,1.838,0.159c0.65,0,1.285-0.057,1.802-0.153c0.517-0.095,0.917-0.23,1.247-0.373
		c0.329-0.142,0.589-0.292,0.808-0.449c0.221-0.158,0.4-0.321,0.553-0.494c0.156-0.172,0.285-0.354,0.396-0.552
		c0.111-0.199,0.202-0.414,0.272-0.658c0.126-0.481,0.209-1.052,0.02-1.587c-0.088-0.263-0.229-0.521-0.428-0.753
		c-0.2-0.233-0.458-0.443-0.741-0.601c-0.131-0.071-0.265-0.138-0.443-0.221c-0.181-0.083-0.407-0.185-0.779-0.307
		c-0.372-0.124-0.891-0.271-1.413-0.399c-0.284-0.072-0.563-0.164-0.753-0.243c-0.192-0.082-0.292-0.149-0.365-0.202
		c-0.073-0.053-0.119-0.089-0.154-0.122c-0.17-0.172-0.188-0.3-0.184-0.453c0.012-0.166,0.061-0.335,0.27-0.491
		c0.046-0.033,0.101-0.063,0.17-0.095c0.069-0.029,0.151-0.057,0.259-0.077c0.108-0.021,0.24-0.035,0.387-0.032
		c0.146,0.001,0.311,0.02,0.445,0.048c0.133,0.029,0.236,0.071,0.319,0.117c0.083,0.047,0.148,0.096,0.202,0.149
		c0.053,0.053,0.097,0.109,0.129,0.173c0.088,0.154,0.109,0.354,0.092,0.547h3.59c-0.001-0.246-0.027-0.493-0.076-0.71
		c-0.049-0.219-0.12-0.409-0.205-0.582c-0.088-0.174-0.192-0.333-0.321-0.483c-0.127-0.152-0.276-0.292-0.461-0.428
		c-0.186-0.138-0.409-0.273-0.703-0.399c-0.295-0.128-0.66-0.25-1.148-0.338c-0.488-0.084-1.1-0.136-1.712-0.138
		c-0.611-0.002-1.223,0.046-1.715,0.125c-0.492,0.079-0.864,0.188-1.167,0.3c-0.305,0.113-0.542,0.228-0.739,0.348
		c-0.198,0.118-0.359,0.241-0.499,0.366c-0.138,0.125-0.255,0.251-0.359,0.388c-0.1,0.134-0.188,0.274-0.263,0.429
		c-0.075,0.155-0.138,0.323-0.185,0.509c-0.047,0.188-0.079,0.394-0.09,0.58c-0.012,0.186-0.006,0.353,0.01,0.499
		c0.019,0.147,0.049,0.276,0.085,0.395c0.081,0.248,0.188,0.434,0.365,0.649c0.094,0.11,0.21,0.23,0.419,0.388
		c0.207,0.155,0.507,0.349,1.052,0.595c0.545,0.246,1.336,0.543,2.141,0.795c0.209,0.063,0.417,0.144,0.561,0.215
		c0.146,0.073,0.232,0.136,0.297,0.19c0.173,0.14,0.227,0.238,0.265,0.348c0.067,0.221,0.042,0.482-0.223,0.722
		c-0.059,0.052-0.129,0.102-0.217,0.149c-0.089,0.045-0.197,0.087-0.327,0.118c-0.128,0.029-0.28,0.046-0.426,0.046
		c-0.148,0.001-0.292-0.015-0.413-0.042c-0.119-0.029-0.217-0.069-0.302-0.114c-0.084-0.047-0.154-0.099-0.219-0.162
		c-0.063-0.063-0.121-0.136-0.172-0.228c-0.051-0.089-0.095-0.199-0.122-0.341c-0.031-0.141-0.046-0.318-0.041-0.493H344.522z"/>
	<path fill-rule="evenodd" clip-rule="evenodd" fill="#FFFFFF" d="M356.305,161.453l-0.005,0.089c-0.014,0.253,0,0.509,0.04,0.74
		c0.042,0.233,0.107,0.442,0.196,0.637c0.086,0.195,0.197,0.377,0.332,0.55c0.138,0.174,0.302,0.34,0.509,0.501
		c0.209,0.161,0.459,0.316,0.789,0.466c0.329,0.148,0.732,0.29,1.267,0.391c0.533,0.099,1.191,0.159,1.838,0.159
		c0.649,0,1.284-0.057,1.801-0.153c0.519-0.095,0.918-0.23,1.248-0.373c0.329-0.142,0.589-0.292,0.808-0.449
		c0.219-0.158,0.399-0.321,0.553-0.494c0.153-0.172,0.284-0.354,0.394-0.552c0.113-0.199,0.204-0.414,0.272-0.658
		c0.127-0.481,0.21-1.052,0.021-1.587c-0.089-0.263-0.229-0.521-0.429-0.753c-0.2-0.233-0.456-0.443-0.739-0.601
		c-0.13-0.071-0.265-0.138-0.445-0.221c-0.18-0.083-0.407-0.185-0.779-0.307c-0.372-0.124-0.891-0.271-1.413-0.399
		c-0.283-0.072-0.563-0.164-0.753-0.243c-0.19-0.082-0.29-0.149-0.365-0.202c-0.073-0.053-0.117-0.089-0.153-0.122
		c-0.172-0.172-0.187-0.3-0.185-0.453c0.012-0.166,0.061-0.335,0.271-0.491c0.046-0.033,0.099-0.063,0.168-0.095
		c0.069-0.029,0.154-0.057,0.261-0.077c0.106-0.021,0.238-0.035,0.386-0.032c0.148,0.001,0.312,0.02,0.446,0.048
		c0.134,0.029,0.235,0.071,0.318,0.117c0.083,0.047,0.148,0.096,0.203,0.149c0.052,0.053,0.097,0.109,0.128,0.173
		c0.088,0.154,0.111,0.354,0.091,0.547h3.591c-0.001-0.246-0.028-0.493-0.076-0.71c-0.05-0.219-0.119-0.409-0.206-0.582
		c-0.086-0.174-0.192-0.333-0.318-0.483c-0.127-0.152-0.277-0.292-0.463-0.428c-0.187-0.138-0.409-0.273-0.703-0.399
		c-0.294-0.128-0.659-0.25-1.147-0.338c-0.489-0.084-1.1-0.136-1.71-0.138c-0.613-0.002-1.224,0.046-1.716,0.125
		c-0.492,0.079-0.866,0.188-1.169,0.3c-0.305,0.113-0.54,0.228-0.738,0.348c-0.199,0.118-0.36,0.241-0.499,0.366
		c-0.138,0.125-0.257,0.251-0.358,0.388c-0.102,0.134-0.189,0.274-0.266,0.429c-0.075,0.155-0.137,0.323-0.185,0.509
		c-0.047,0.188-0.077,0.394-0.088,0.58c-0.011,0.186-0.008,0.353,0.011,0.499c0.017,0.147,0.047,0.276,0.085,0.395
		c0.08,0.248,0.186,0.434,0.365,0.649c0.092,0.11,0.209,0.23,0.417,0.388c0.209,0.155,0.509,0.349,1.053,0.595
		c0.546,0.246,1.336,0.543,2.14,0.795c0.21,0.063,0.417,0.144,0.563,0.215c0.146,0.073,0.231,0.136,0.296,0.19
		c0.175,0.14,0.228,0.238,0.267,0.348c0.065,0.221,0.042,0.482-0.224,0.722c-0.058,0.052-0.127,0.102-0.218,0.149
		c-0.088,0.045-0.196,0.087-0.325,0.118c-0.13,0.029-0.282,0.046-0.428,0.046c-0.148,0.001-0.292-0.015-0.411-0.042
		c-0.121-0.029-0.219-0.069-0.303-0.114c-0.083-0.047-0.155-0.099-0.217-0.162c-0.065-0.063-0.122-0.136-0.172-0.228
		c-0.051-0.089-0.095-0.199-0.124-0.341c-0.029-0.141-0.044-0.318-0.041-0.493H356.305z"/>
	<path fill-rule="evenodd" clip-rule="evenodd" fill="#FFFFFF" d="M371.074,151.884h-2.428l-0.276,5.023h2.429L371.074,151.884z
		 M374.462,151.884h-2.448l-0.274,5.023h2.446L374.462,151.884z"/>
	<path fill-rule="evenodd" clip-rule="evenodd" fill="#FFFFFF" d="M409.301,160.491c-0.021,0.417,0.01,0.838,0.086,1.21
		c0.079,0.372,0.204,0.694,0.365,0.989c0.161,0.296,0.362,0.563,0.616,0.814c0.255,0.251,0.563,0.486,0.968,0.708
		c0.403,0.222,0.902,0.43,1.566,0.576c0.661,0.146,1.488,0.232,2.31,0.233c0.822,0.001,1.64-0.083,2.299-0.225
		c0.658-0.142,1.153-0.339,1.559-0.548c0.407-0.211,0.72-0.432,0.983-0.666c0.263-0.234,0.476-0.482,0.654-0.754
		c0.181-0.271,0.326-0.567,0.435-0.906c0.107-0.34,0.176-0.724,0.199-1.062c0.025-0.34,0.004-0.637-0.044-0.906
		c-0.05-0.269-0.129-0.509-0.238-0.741c-0.111-0.233-0.253-0.457-0.451-0.699c-0.201-0.242-0.457-0.499-0.845-0.764
		c-0.384-0.267-0.898-0.543-1.433-0.762c-0.916-0.374-1.823-0.764-2.321-0.993c-0.493-0.228-0.576-0.29-0.639-0.345
		c-0.171-0.137-0.23-0.243-0.27-0.353c-0.06-0.205-0.026-0.444,0.158-0.667c0.058-0.069,0.132-0.138,0.229-0.202
		c0.099-0.063,0.218-0.121,0.363-0.161c0.146-0.04,0.32-0.064,0.513-0.065c0.196-0.001,0.411,0.02,0.582,0.054
		c0.173,0.034,0.301,0.084,0.408,0.138c0.106,0.053,0.19,0.109,0.264,0.175c0.073,0.063,0.134,0.133,0.189,0.217
		c0.057,0.083,0.106,0.181,0.145,0.301c0.038,0.123,0.067,0.273,0.079,0.422h4.122c-0.01-0.413-0.071-0.825-0.173-1.188
		c-0.102-0.363-0.246-0.675-0.421-0.957s-0.386-0.536-0.641-0.771c-0.254-0.235-0.556-0.448-0.932-0.644
		c-0.378-0.198-0.833-0.375-1.415-0.501c-0.58-0.127-1.284-0.201-2.012-0.199c-0.729,0.001-1.477,0.08-2.086,0.21
		c-0.606,0.132-1.071,0.317-1.453,0.514c-0.38,0.197-0.68,0.406-0.928,0.63c-0.249,0.222-0.452,0.458-0.624,0.716
		c-0.17,0.258-0.309,0.54-0.412,0.86c-0.102,0.32-0.169,0.679-0.19,1.042c-0.012,0.217-0.006,0.437,0.016,0.633
		c0.021,0.197,0.06,0.37,0.107,0.533c0.1,0.331,0.24,0.605,0.469,0.901c0.119,0.151,0.263,0.309,0.476,0.509
		c0.214,0.202,0.496,0.445,0.979,0.727c0.479,0.282,1.163,0.603,1.864,0.87c0.559,0.219,1.111,0.459,1.438,0.616
		c0.328,0.159,0.432,0.236,0.505,0.298c0.138,0.117,0.193,0.193,0.237,0.278c0.071,0.136,0.089,0.251,0.083,0.392
		c-0.006,0.086-0.02,0.173-0.04,0.249c-0.023,0.077-0.05,0.142-0.083,0.201c-0.062,0.111-0.142,0.209-0.276,0.307
		c-0.063,0.044-0.136,0.088-0.232,0.129c-0.096,0.042-0.213,0.081-0.364,0.109c-0.152,0.028-0.342,0.046-0.561,0.043
		c-0.224-0.001-0.473-0.022-0.676-0.061c-0.202-0.037-0.357-0.092-0.48-0.147c-0.127-0.058-0.225-0.117-0.304-0.18
		c-0.082-0.063-0.147-0.13-0.205-0.203c-0.056-0.071-0.102-0.147-0.141-0.232c-0.09-0.196-0.122-0.45-0.102-0.702H409.301z"/>
	<path fill-rule="evenodd" clip-rule="evenodd" fill="#FFFFFF" d="M422.607,164.677h3.932l2.003-9.67h-3.933L422.607,164.677z
		 M424.755,153.966h3.971l0.535-2.699h-3.934L424.755,153.966z"/>
	<path fill-rule="evenodd" clip-rule="evenodd" fill="#FFFFFF" d="M428.701,164.677h3.932l1.047-5.15
		c0.054-0.261,0.125-0.521,0.205-0.723c0.079-0.2,0.161-0.344,0.24-0.458c0.256-0.365,0.465-0.48,0.693-0.579
		c0.088-0.034,0.187-0.063,0.298-0.084c0.111-0.021,0.237-0.032,0.364-0.032c0.153,0,0.313,0.021,0.443,0.061
		c0.131,0.039,0.238,0.092,0.328,0.156c0.089,0.064,0.164,0.138,0.222,0.221c0.128,0.179,0.182,0.409,0.171,0.639
		c-0.002,0.021-0.002,0.041-0.008,0.075c-0.004,0.035-0.008,0.082-0.021,0.151c-0.014,0.073-0.032,0.167-0.056,0.26l-1.081,5.463
		h3.931l1.107-5.568c0.038-0.185,0.073-0.371,0.1-0.533c0.027-0.162,0.045-0.303,0.058-0.422c0.014-0.12,0.021-0.218,0.027-0.32
		c0.02-0.376-0.018-0.758-0.102-1.085c-0.087-0.326-0.219-0.597-0.383-0.83c-0.165-0.234-0.36-0.432-0.603-0.604
		c-0.24-0.173-0.528-0.318-0.883-0.419c-0.354-0.101-0.78-0.158-1.198-0.16c-0.419-0.002-0.83,0.052-1.216,0.153
		c-0.39,0.102-0.756,0.251-1.135,0.481c-0.374,0.229-0.764,0.538-1.107,0.886l0.236-1.249h-3.589L428.701,164.677z"/>
	<path fill-rule="evenodd" clip-rule="evenodd" fill="#FFFFFF" d="M449.344,160.908c-0.056,0.233-0.147,0.459-0.263,0.646
		c-0.115,0.186-0.254,0.334-0.405,0.451c-0.313,0.246-0.678,0.355-1.039,0.355c-0.136,0-0.272-0.012-0.386-0.036
		c-0.115-0.024-0.211-0.057-0.298-0.095c-0.082-0.04-0.155-0.084-0.225-0.138c-0.065-0.054-0.126-0.115-0.185-0.19
		c-0.057-0.075-0.111-0.165-0.163-0.28c-0.048-0.117-0.096-0.261-0.124-0.459c-0.029-0.196-0.039-0.445-0.018-0.771
		c0.021-0.325,0.079-0.729,0.151-1.056c0.075-0.326,0.171-0.577,0.267-0.779c0.097-0.204,0.19-0.357,0.283-0.484
		c0.282-0.377,0.553-0.545,0.819-0.653c0.094-0.037,0.192-0.065,0.294-0.084c0.102-0.018,0.211-0.029,0.344-0.027
		c0.132,0.004,0.292,0.019,0.42,0.048c0.131,0.029,0.234,0.07,0.321,0.118c0.088,0.049,0.161,0.103,0.225,0.167
		c0.065,0.063,0.121,0.135,0.169,0.224c0.05,0.088,0.094,0.193,0.123,0.33c0.028,0.136,0.042,0.306,0.036,0.475h3.8
		c0.012-0.383-0.025-0.77-0.102-1.108c-0.079-0.336-0.194-0.627-0.346-0.889c-0.15-0.263-0.331-0.499-0.556-0.718
		c-0.225-0.218-0.493-0.419-0.837-0.605c-0.344-0.186-0.76-0.355-1.304-0.478c-0.541-0.123-1.205-0.198-1.898-0.188
		c-0.691,0.009-1.411,0.105-2.035,0.281c-0.624,0.175-1.156,0.432-1.622,0.742c-0.467,0.31-0.87,0.674-1.226,1.11
		c-0.354,0.435-0.656,0.941-0.881,1.549c-0.223,0.607-0.367,1.317-0.411,1.939c-0.042,0.622,0.016,1.156,0.139,1.621
		c0.124,0.464,0.316,0.857,0.564,1.207c0.247,0.348,0.551,0.655,0.935,0.926c0.384,0.272,0.853,0.511,1.453,0.679
		c0.602,0.167,1.335,0.26,2.031,0.268c0.699,0.005,1.359-0.074,1.917-0.209c0.561-0.136,1.018-0.326,1.415-0.549
		c0.397-0.223,0.737-0.476,1.046-0.777c0.308-0.301,0.586-0.649,0.829-1.08c0.244-0.432,0.453-0.947,0.598-1.479H449.344z"/>
	<path fill-rule="evenodd" clip-rule="evenodd" fill="#FFFFFF" d="M462.167,161.834c-0.034,0.083-0.076,0.159-0.126,0.229
		c-0.052,0.071-0.111,0.134-0.183,0.194c-0.073,0.06-0.157,0.117-0.266,0.169c-0.105,0.053-0.231,0.1-0.395,0.135
		c-0.16,0.034-0.354,0.055-0.552,0.055c-0.195-0.001-0.394-0.022-0.557-0.06s-0.29-0.09-0.399-0.152
		c-0.109-0.059-0.199-0.128-0.278-0.21c-0.082-0.08-0.151-0.174-0.213-0.291c-0.062-0.115-0.117-0.254-0.151-0.438
		c-0.045-0.224-0.051-0.51-0.029-0.781h7.365c0.056-0.33,0.094-0.653,0.111-0.96c0.032-0.587-0.008-1.18-0.102-1.668
		c-0.095-0.489-0.246-0.875-0.425-1.206c-0.181-0.332-0.386-0.608-0.628-0.853c-0.243-0.246-0.525-0.46-0.875-0.653
		c-0.35-0.194-0.765-0.367-1.306-0.491c-0.54-0.124-1.204-0.199-1.897-0.188c-0.696,0.01-1.422,0.105-2.052,0.282
		s-1.162,0.434-1.631,0.745c-0.468,0.31-0.869,0.674-1.223,1.11c-0.355,0.437-0.664,0.946-0.889,1.566
		c-0.225,0.619-0.371,1.348-0.417,1.974c-0.042,0.625,0.012,1.146,0.133,1.6c0.123,0.454,0.311,0.841,0.559,1.188
		c0.246,0.346,0.549,0.653,0.938,0.927c0.392,0.275,0.868,0.52,1.486,0.69c0.618,0.17,1.379,0.265,2.106,0.273
		c0.729,0.01,1.429-0.069,2.01-0.2c0.582-0.128,1.047-0.308,1.444-0.509c0.397-0.2,0.722-0.422,1.002-0.666
		c0.284-0.243,0.524-0.509,0.733-0.813c0.209-0.302,0.388-0.643,0.524-1H462.167z M459.303,158.749
		c0.052-0.247,0.133-0.488,0.232-0.686s0.217-0.354,0.338-0.48c0.123-0.128,0.249-0.229,0.386-0.311
		c0.274-0.168,0.628-0.251,0.972-0.255c0.173-0.002,0.332,0.017,0.473,0.05c0.136,0.033,0.251,0.08,0.353,0.136
		c0.103,0.056,0.19,0.121,0.27,0.202c0.08,0.081,0.151,0.174,0.217,0.292c0.063,0.117,0.123,0.257,0.159,0.438
		c0.038,0.179,0.056,0.397,0.046,0.614H459.303z"/>
	<path fill-rule="evenodd" clip-rule="evenodd" fill="#FFFFFF" d="M479.271,164.677h3.915l2.684-12.756h-3.053
		c-0.257,0.404-0.557,0.782-0.857,1.084c-0.302,0.3-0.605,0.525-0.941,0.725s-0.706,0.371-1.185,0.509
		c-0.479,0.136-1.065,0.239-1.655,0.281l-0.566,2.605c0.455-0.001,0.912-0.017,1.317-0.047s0.761-0.073,1.079-0.122
		c0.316-0.05,0.599-0.104,0.878-0.173L479.271,164.677z"/>
	<path fill-rule="evenodd" clip-rule="evenodd" fill="#FFFFFF" d="M486.523,161.473c0.042,0.404,0.133,0.804,0.246,1.139
		c0.116,0.333,0.263,0.6,0.42,0.831c0.161,0.231,0.34,0.428,0.547,0.605c0.21,0.178,0.446,0.335,0.741,0.479
		c0.294,0.144,0.647,0.275,1.11,0.368c0.459,0.094,1.027,0.152,1.638,0.144c0.61-0.007,1.263-0.079,1.839-0.213
		s1.077-0.332,1.532-0.574c0.455-0.242,0.866-0.53,1.254-0.884c0.386-0.354,0.749-0.774,1.095-1.312
		c0.347-0.54,0.678-1.195,0.927-2.051c0.252-0.854,0.423-1.91,0.484-2.75c0.063-0.841,0.015-1.467-0.093-1.993
		c-0.107-0.525-0.274-0.951-0.474-1.318c-0.198-0.368-0.429-0.677-0.699-0.948c-0.269-0.272-0.578-0.507-0.948-0.714
		c-0.371-0.206-0.805-0.385-1.339-0.513c-0.537-0.126-1.177-0.202-1.875-0.194c-0.695,0.01-1.452,0.105-2.074,0.273
		c-0.624,0.166-1.119,0.407-1.536,0.682c-0.418,0.274-0.758,0.582-1.052,0.941c-0.292,0.358-0.537,0.767-0.72,1.265
		c-0.183,0.495-0.302,1.078-0.336,1.601c-0.033,0.523,0.015,0.988,0.126,1.399c0.112,0.41,0.284,0.763,0.504,1.074
		c0.219,0.311,0.487,0.579,0.804,0.808c0.323,0.229,0.697,0.418,1.141,0.549c0.447,0.132,0.966,0.205,1.482,0.205
		c0.352,0,0.705-0.033,1.029-0.091c0.324-0.061,0.622-0.147,0.9-0.257c0.28-0.111,0.545-0.243,0.793-0.4
		c-0.048,0.388-0.141,0.773-0.254,1.08c-0.109,0.308-0.239,0.535-0.37,0.718c-0.271,0.379-0.522,0.563-0.785,0.702
		c-0.288,0.147-0.614,0.217-0.946,0.217c-0.171,0-0.344-0.021-0.488-0.057c-0.146-0.036-0.259-0.086-0.361-0.146
		c-0.1-0.062-0.184-0.131-0.259-0.214c-0.077-0.084-0.144-0.182-0.199-0.309c-0.054-0.126-0.099-0.28-0.123-0.438L486.523,161.473z
		 M492.915,154.312c0.223,0,0.449,0.029,0.632,0.081c0.186,0.052,0.328,0.126,0.449,0.211s0.215,0.181,0.296,0.296
		c0.08,0.113,0.146,0.244,0.186,0.405c0.041,0.159,0.058,0.347,0.048,0.559c-0.013,0.213-0.054,0.447-0.115,0.645
		c-0.061,0.197-0.14,0.354-0.229,0.489c-0.086,0.135-0.18,0.245-0.285,0.341c-0.104,0.094-0.218,0.173-0.346,0.242
		c-0.127,0.067-0.271,0.125-0.438,0.163c-0.165,0.041-0.354,0.063-0.563,0.062c-0.207-0.002-0.432-0.033-0.616-0.083
		c-0.185-0.052-0.328-0.125-0.447-0.211c-0.121-0.085-0.215-0.181-0.298-0.295c-0.078-0.113-0.144-0.245-0.184-0.404
		c-0.043-0.161-0.062-0.349-0.045-0.578c0.014-0.229,0.065-0.499,0.146-0.718c0.078-0.221,0.183-0.394,0.298-0.538
		c0.115-0.143,0.243-0.258,0.388-0.355c0.142-0.094,0.303-0.173,0.495-0.227C492.477,154.34,492.694,154.312,492.915,154.312z"/>
	<path fill-rule="evenodd" clip-rule="evenodd" fill="#FFFFFF" d="M500.207,164.677h4.43c0.193-1.254,0.527-2.487,0.979-3.64
		c0.451-1.154,1.023-2.225,1.782-3.304c0.758-1.079,1.701-2.164,2.743-3.14l0.588-2.672h-10.233l-0.644,3.025h6.133
		c-1.187,1.055-2.266,2.234-3.092,3.365c-0.827,1.127-1.401,2.206-1.829,3.256C500.636,162.615,500.356,163.637,500.207,164.677z"/>
	<path fill-rule="evenodd" clip-rule="evenodd" fill="#FFFFFF" d="M512.366,164.677h4.428c0.195-1.254,0.525-2.487,0.979-3.64
		c0.453-1.154,1.025-2.225,1.782-3.304c0.759-1.079,1.703-2.164,2.745-3.14l0.586-2.672h-10.229l-0.649,3.025h6.133
		c-1.185,1.055-2.262,2.234-3.087,3.365c-0.83,1.127-1.404,2.206-1.83,3.256C512.793,162.615,512.517,163.637,512.366,164.677z"/>
	<polygon fill-rule="evenodd" clip-rule="evenodd" fill="#FFFFFF" points="386.626,157.543 400.066,157.543 399.549,160.39 
		386.108,160.39 	"/>
</g>
<g>
	<g>
		<path fill-rule="evenodd" clip-rule="evenodd" fill="#FFFFFF" d="M504.046,90.597c1.84,4.302,4.72,7.721,9.454,9.969
			c4.736,2.247,11.307,2.733,17.627,2.741l27.846,0.038V80.998l-31.793,0.118l0.008-59.086h-25.394l0.102,54.068
			C501.906,81.133,502.209,86.294,504.046,90.597z"/>
		<path fill-rule="evenodd" clip-rule="evenodd" fill="#FFFFFF" d="M44.357,49.584l0.216,54.414h23.63l0.147-50.069
			c0.008-1.734,0.29-3.532,1.845-5.115c1.557-1.585,4.118-2.932,6.504-2.414c2.386,0.519,4.604,2.903,4.807,5.367
			c0.204,2.462-1.605,5-3.605,7.807c-2.004,2.807-4.202,5.882-5.38,10.201c-1.183,4.32-1.348,9.881-0.271,14.713
			c1.077,4.83,3.394,8.928,6.624,11.935c3.227,3.005,7.361,4.918,10.995,6.006c3.635,1.088,6.734,0.923,9.821,0.923l7.06,0.003
			l-0.037-21.914l-4.514,0.007c-1.264,0.003-2.571,0.039-3.723-0.501c-1.148-0.54-2.128-1.438-2.406-2.851
			c-0.277-1.409,0.145-3.33,1.632-5.929c1.488-2.6,4.042-5.88,5.802-9.801c1.76-3.919,2.727-8.482,2.351-14.431
			c-0.377-5.942-2.1-13.271-6.989-18.077c-4.887-4.804-12.94-7.09-20.463-7.544c-7.519-0.458-14.508,0.917-19.77,3.601
			c-5.262,2.684-8.801,6.677-11.091,10.844C45.253,40.928,44.34,45.268,44.357,49.584z"/>
		<path fill-rule="evenodd" clip-rule="evenodd" fill="#FFFFFF" d="M285.983,49.584l0.215,54.414h23.63l0.149-50.069
			c0.004-1.734,0.288-3.532,1.845-5.115c1.555-1.585,4.116-2.932,6.503-2.414c2.39,0.519,4.602,2.903,4.808,5.367
			c0.202,2.462-1.605,5-3.607,7.807c-2.003,2.807-4.201,5.882-5.382,10.201c-1.179,4.32-1.344,9.881-0.265,14.713
			c1.073,4.83,3.392,8.928,6.62,11.935c3.227,3.005,7.361,4.918,10.997,6.006c3.635,1.088,6.738,0.923,9.822,0.923l7.061,0.003
			l-0.04-21.914l-4.511,0.007c-1.264,0.003-2.572,0.039-3.724-0.501c-1.15-0.54-2.129-1.438-2.406-2.851
			c-0.277-1.409,0.145-3.33,1.63-5.929c1.49-2.6,4.044-5.88,5.804-9.801c1.761-3.919,2.727-8.482,2.35-14.431
			c-0.378-5.942-2.101-13.271-6.989-18.077c-4.887-4.804-12.941-7.09-20.461-7.544c-7.521-0.458-14.51,0.917-19.773,3.601
			c-5.262,2.684-8.8,6.677-11.09,10.844C286.879,40.928,285.966,45.268,285.983,49.584z"/>
		<path fill-rule="evenodd" clip-rule="evenodd" fill="#FFFFFF" d="M353.2,49.584l0.217,54.414h23.63l0.147-50.069
			c0.004-1.734,0.289-3.532,1.845-5.115c1.557-1.585,4.118-2.932,6.505-2.414c2.39,0.519,4.604,2.903,4.806,5.367
			c0.203,2.462-1.604,5-3.605,7.807c-2.003,2.807-4.201,5.882-5.382,10.201c-1.181,4.32-1.344,9.881-0.269,14.713
			c1.077,4.83,3.396,8.928,6.622,11.935c3.228,3.005,7.365,4.918,11,6.006c3.633,1.088,6.735,0.923,9.82,0.923l7.059,0.003
			l-0.039-21.914l-4.51,0.007c-1.264,0.003-2.571,0.039-3.721-0.501c-1.152-0.54-2.131-1.438-2.408-2.851
			c-0.28-1.409,0.145-3.33,1.631-5.929c1.489-2.6,4.041-5.88,5.804-9.801c1.761-3.919,2.729-8.482,2.35-14.431
			c-0.378-5.942-2.1-13.271-6.988-18.077c-4.887-4.804-12.942-7.09-20.462-7.544c-7.522-0.458-14.51,0.917-19.773,3.601
			c-5.263,2.684-8.799,6.677-11.09,10.844C354.094,40.928,353.183,45.268,353.2,49.584z"/>
		<path fill-rule="evenodd" clip-rule="evenodd" fill="#FFFFFF" d="M231.639,35.784c-2.726,4.762-4.042,10.673-4.014,16.491
			l0.129,25.704c0.024,4.921,1.388,9.875,4.185,14.04c2.797,4.169,6.957,7.549,11.837,9.557c4.878,2.008,10.417,1.863,15.82,1.833
			l20.182-0.116V80.523l-22.753-0.174c-1.112-0.009-2.141-0.604-2.659-1.47c-0.52-0.87-0.487-2.302-0.453-3.738h20.261v-23.45
			l-20.291,0.102c-0.072-1.447-0.145-2.895,0.332-3.753c0.475-0.86,1.467-1.391,2.524-1.4l22.766-0.199V23.357l-19.313,0.007
			c-5.797,0.003-11.765-0.247-16.791,1.9C238.375,27.411,234.364,31.022,231.639,35.784z"/>
		<path fill-rule="evenodd" clip-rule="evenodd" fill="#FFFFFF" d="M116.377,35.784c-2.725,4.762-4.043,10.673-4.014,16.491
			l0.13,25.704c0.025,4.921,1.387,9.875,4.184,14.04c2.799,4.169,6.957,7.549,11.836,9.557c4.879,2.008,10.414,1.863,15.823,1.833
			l20.177-0.116V80.523l-22.751-0.174c-1.11-0.009-2.138-0.604-2.658-1.47c-0.519-0.87-0.486-2.302-0.453-3.738h20.262v-23.45
			l-20.291,0.102c-0.073-1.447-0.147-2.895,0.328-3.753c0.477-0.86,1.467-1.391,2.529-1.4l22.763-0.199V23.357l-19.314,0.007
			c-5.795,0.003-11.765-0.247-16.789,1.9C123.113,27.411,119.104,31.022,116.377,35.784z"/>
		<path fill-rule="evenodd" clip-rule="evenodd" fill="#FFFFFF" d="M175.352,35.784c-2.726,4.762-3.99,10.673-4.014,16.491
			l-0.216,51.024l26.461-0.008l0.044-28.15h20.26v-23.45l-20.291,0.102c-0.072-1.447-0.148-2.895,0.329-3.753
			c0.476-0.86,1.469-1.391,2.527-1.4l22.764-0.199V23.357l-19.312,0.007c-5.797,0.003-11.767-0.247-16.791,1.9
			C182.087,27.411,178.074,31.022,175.352,35.784z"/>
	</g>
	<path fill-rule="evenodd" clip-rule="evenodd" fill="#FFFFFF" d="M472.341,24.148c-4.329-2.383-9.507-2.939-13.714-2.439
		c-4.211,0.501-7.449,2.057-10.259,4.522c-2.803,2.464-5.489,5.724-6.639,9.532l-20.402,67.671h25.851l3.704-14.925h20.308
		l4.396,14.935h26.129l-19.781-67.929C480.507,30.623,476.669,26.532,472.341,24.148z M457.105,66.086l4.307-14.052l4.85,14.066
		L457.105,66.086z"/>
</g>
<g>
	<path fill-rule="evenodd" clip-rule="evenodd" fill="#FFFFFF" d="M78.038,135.194c0.565,1.375,1.455,2.475,2.957,3.202
		c1.505,0.727,3.613,0.918,5.629,0.919l8.795,0.013v-7.178l-10.041,0.039V113.21h-8.021l0.032,17.367
		C77.39,132.183,77.468,133.821,78.038,135.194z"/>
	<path fill-rule="evenodd" clip-rule="evenodd" fill="#FFFFFF" d="M144.098,139.37h8.248l0.002-11.65l5.846,8.044
		c0.997,1.37,1.703,3.057,3.526,3.678c1.825,0.622,4.133,0.375,5.501-0.738c1.366-1.114,1.189-3.013,1.184-4.658l-0.067-20.642
		h-8.048l-0.042,12.52l-6.869-10.056c-0.816-1.198-1.845-2.477-3.577-2.789s-3.817,0.229-4.996,1.65
		c-1.174,1.422-0.711,3.634-0.711,5.609L144.098,139.37z"/>
	<path fill-rule="evenodd" clip-rule="evenodd" fill="#FFFFFF" d="M181.679,139.37h8.249l0.001-11.65l5.846,8.044
		c0.996,1.37,1.703,3.057,3.532,3.678c1.827,0.622,4.137,0.375,5.487-0.742c1.35-1.118,1.075-3.017,1.081-4.655l0.043-20.642h-8.048
		l-0.041,12.52l-6.869-10.056c-0.813-1.192-1.861-2.459-3.52-2.787c-1.661-0.327-3.609,0.174-4.779,1.58
		c-1.172,1.405-0.986,3.661-0.986,5.678L181.679,139.37z"/>
	<path fill-rule="evenodd" clip-rule="evenodd" fill="#FFFFFF" d="M208.982,128.431c0.241,2.5,0.992,4.616,2.07,6.243
		c1.075,1.631,2.475,2.772,4.273,3.547c1.801,0.776,3.999,1.133,6.167,1.14l9.78,0.037v-14.516h-8.007v7.285l-1.953-0.036
		c-1.264-0.023-2.346-0.869-3.06-1.825c-0.714-0.956-1.027-2.236-1.081-3.688c-0.058-1.453,0.145-3.075,1.088-4.164
		c0.944-1.088,2.624-1.515,4.209-1.529l8.786-0.075v-7.493l-10.559,0.004c-2.277,0.001-4.533,0.695-6.43,1.928
		c-1.898,1.234-3.434,3.053-4.339,5.406C209.021,123.046,208.746,125.93,208.982,128.431z"/>
	<rect x="171.082" y="113.505" fill-rule="evenodd" clip-rule="evenodd" fill="#FFFFFF" width="7.825" height="25.806"/>
	<path fill-rule="evenodd" clip-rule="evenodd" fill="#FFFFFF" d="M51.896,126.171c-0.203,3.036,0.49,6.043,2.041,8.39
		c1.551,2.348,3.962,4.035,6.803,4.835c2.839,0.799,6.104,0.712,8.816,0.022c2.711-0.691,4.868-1.982,6.348-3.676l-5.448-5.477
		c-1.021,1.066-2.616,1.809-4.253,1.912c-1.637,0.103-3.319-0.432-4.397-1.388c-1.075-0.957-1.545-2.335-1.593-3.823
		c-0.045-1.485,0.332-3.078,1.382-4.209c1.048-1.134,2.771-1.808,4.376-1.837c1.604-0.028,3.09,0.586,4.02,1.541l5.541-5.536
		c-1.3-1.309-3.027-2.327-5.134-3.004c-2.111-0.678-4.606-1.012-7.354-0.442c-2.747,0.569-5.748,2.044-7.795,4.316
		C53.197,120.067,52.101,123.135,51.896,126.171z"/>
	<path fill-rule="evenodd" clip-rule="evenodd" fill="#FFFFFF" d="M98.334,117.433c-0.859,1.539-1.245,3.43-1.236,5.291l0.041,8.332
		c0.009,1.566,0.405,3.152,1.288,4.499c0.885,1.347,2.205,2.456,3.77,3.115c1.565,0.659,3.357,0.638,5.094,0.626l6.433-0.037v-7.379
		l-7.252-0.056c-0.373-0.004-0.695-0.218-0.862-0.499c-0.167-0.282-0.147-0.735-0.131-1.188h6.459v-7.602l-6.468,0.035
		c-0.03-0.459-0.059-0.918,0.092-1.196c0.152-0.278,0.464-0.472,0.818-0.473l7.256-0.066v-7.483l-6.155,0.003
		c-1.864,0-3.795-0.05-5.408,0.653C100.458,114.713,99.193,115.896,98.334,117.433z"/>
	<path fill-rule="evenodd" clip-rule="evenodd" fill="#FFFFFF" d="M135.242,117.936c-0.42-1.464-1.563-2.814-2.948-3.591
		c-1.383-0.776-3.049-0.97-4.395-0.811c-1.346,0.158-2.375,0.67-3.258,1.465c-0.885,0.793-1.705,1.855-2.048,3.017l-6.419,21.653
		h8.131l1.167-4.776h6.39l1.384,4.779h8.223L135.242,117.936z M127.377,128.824l1.357-4.497l1.525,4.501L127.377,128.824z"/>
</g>
<path fill-rule="evenodd" clip-rule="evenodd" fill="#FFFFFF" d="M408.596,121.816l0.076,18.692h8.317l0.055-17.2
	c0-0.584,0.072-1.192,0.629-1.736c0.555-0.543,1.473-1.015,2.319-0.839c0.847,0.176,1.619,0.999,1.687,1.843
	c0.068,0.844-0.568,1.71-1.276,2.676c-0.704,0.967-1.481,2.033-1.898,3.513c-0.416,1.479-0.475,3.372-0.103,5.018
	c0.371,1.647,1.172,3.048,2.305,4.084c1.134,1.037,2.599,1.708,3.889,2.088c1.288,0.381,2.388,0.331,3.479,0.331l2.487,0.001
	l-0.015-7.528l-1.588,0.003c-0.448,0.001-0.915,0.006-1.322-0.181c-0.406-0.187-0.746-0.5-0.842-0.979
	c-0.096-0.481,0.05-1.131,0.576-2.025c0.527-0.895,1.432-2.036,2.053-3.383c0.621-1.349,0.958-2.905,0.843-4.925
	c-0.114-2.019-0.683-4.501-2.4-6.154c-1.718-1.651-4.587-2.473-7.267-2.641c-2.682-0.168-5.175,0.316-7.034,1.246
	c-1.859,0.929-3.086,2.303-3.881,3.729C408.889,118.874,408.59,120.35,408.596,121.816z"/>
<path fill-rule="evenodd" clip-rule="evenodd" fill="#FFFFFF" d="M287.462,122.178l0.077,18.979h8.446l0.053-17.465
	c0-0.592,0.075-1.209,0.638-1.762c0.566-0.553,1.5-1.031,2.359-0.853c0.859,0.179,1.643,1.016,1.711,1.873
	c0.068,0.856-0.58,1.735-1.296,2.717c-0.717,0.981-1.503,2.064-1.927,3.565c-0.424,1.502-0.483,3.424-0.106,5.097
	c0.378,1.672,1.191,3.094,2.342,4.147c1.15,1.052,2.639,1.733,3.948,2.119c1.308,0.388,2.424,0.337,3.534,0.337h2.524l-0.015-7.645
	l-1.612,0.004c-0.456,0.001-0.928,0.006-1.342-0.183c-0.413-0.191-0.759-0.508-0.856-0.994c-0.097-0.489,0.052-1.149,0.586-2.058
	c0.534-0.909,1.453-2.066,2.084-3.436c0.629-1.37,0.974-2.949,0.854-5c-0.116-2.052-0.691-4.571-2.437-6.25
	c-1.745-1.678-4.658-2.512-7.379-2.682c-2.723-0.171-5.254,0.32-7.142,1.265c-1.887,0.942-3.133,2.337-3.94,3.786
	C287.759,119.19,287.457,120.688,287.462,122.178z"/>
<path fill-rule="evenodd" clip-rule="evenodd" fill="#FFFFFF" d="M313.697,117.824c-0.951,1.632-1.383,3.641-1.374,5.619
	l0.046,8.829c0.009,1.667,0.453,3.351,1.432,4.78c0.979,1.428,2.437,2.602,4.165,3.298c1.728,0.697,3.699,0.669,5.612,0.658
	l7.104-0.04v-7.822l-8.009-0.058c-0.407-0.004-0.764-0.227-0.947-0.525c-0.183-0.297-0.166-0.781-0.148-1.264h7.132v-8.057
	l-7.143,0.036c-0.031-0.488-0.062-0.976,0.105-1.271c0.167-0.295,0.513-0.497,0.899-0.5l8.014-0.069v-7.93l-6.799,0.003
	c-2.053,0.001-4.179-0.059-5.96,0.685C316.048,114.94,314.648,116.192,313.697,117.824z"/>
<polygon fill-rule="evenodd" clip-rule="evenodd" fill="#FFFFFF" points="464.637,120.604 464.637,140.232 473.534,140.232 
	473.534,120.719 481.602,120.719 481.602,112.717 456.636,112.717 456.636,120.604 "/>
<polygon fill-rule="evenodd" clip-rule="evenodd" fill="#FFFFFF" points="365.755,120.604 365.755,140.231 374.653,140.231 
	374.653,120.719 382.721,120.719 382.721,112.716 357.755,112.716 357.755,120.604 "/>
<path fill-rule="evenodd" clip-rule="evenodd" fill="#FFFFFF" d="M521.028,139.722h8.628l0.002-12.189l6.119,8.416
	c1.041,1.434,1.779,3.198,3.688,3.848c1.908,0.651,4.324,0.393,5.753-0.772c1.431-1.165,1.246-3.151,1.24-4.872l-0.071-21.598
	h-8.418l-0.045,13.1l-7.187-10.522c-0.854-1.253-1.931-2.591-3.744-2.918c-1.811-0.325-3.993,0.239-5.225,1.727
	c-1.229,1.488-0.744,3.801-0.744,5.869L521.028,139.722z"/>
<rect x="484.378" y="112.722" fill-rule="evenodd" clip-rule="evenodd" fill="#FFFFFF" width="9.719" height="27.473"/>
<path fill="#FFFFFF" d="M355.333,115.283l-2.621,8.402c-1.716-2.597-3.686-3.896-5.912-3.896c-1.238,0-1.856,0.524-1.856,1.572
	c0,0.326,0.195,0.658,0.584,0.996c0.39,0.336,1.413,0.867,3.066,1.589c1.82,0.803,3.221,1.534,4.204,2.192
	c0.983,0.657,1.718,1.498,2.208,2.524c0.487,1.024,0.732,2.217,0.732,3.58c0,2.853-0.967,5.027-2.901,6.523
	c-1.935,1.497-4.778,2.245-8.533,2.245c-4.211,0-7.84-0.67-10.889-2.009l2.574-8.908c0.75,1.305,1.677,2.341,2.785,3.109
	c1.108,0.769,2.171,1.154,3.19,1.154c0.499,0,0.918-0.147,1.256-0.438c0.337-0.292,0.506-0.646,0.506-1.065
	c0-0.396-0.163-0.775-0.492-1.136c-0.327-0.36-1.193-0.862-2.597-1.501c-1.269-0.571-2.319-1.126-3.151-1.668
	c-0.832-0.542-1.555-1.313-2.168-2.315c-0.613-1-0.921-2.265-0.921-3.79c0-2.957,0.963-5.187,2.887-6.689
	c1.923-1.502,4.762-2.254,8.516-2.254C349.235,113.501,352.412,114.096,355.333,115.283z"/>
<path fill-rule="evenodd" clip-rule="evenodd" fill="#FFFFFF" d="M453.111,117.593c-0.442-1.544-1.647-2.968-3.107-3.786
	c-1.457-0.818-3.215-1.022-4.633-0.854c-1.421,0.167-2.504,0.707-3.435,1.544c-0.934,0.837-1.797,1.957-2.161,3.181l-6.767,22.827
	h8.572l1.23-5.035h6.737l1.457,5.039h8.668L453.111,117.593z M444.822,129.072l1.43-4.741l1.609,4.745L444.822,129.072z"/>
<g>
	<path fill="#FFFFFF" d="M266.807,124.448h6.753c-1.675,2.714-3.484,5.082-5.427,7.105l8.254,8.776h-12.041l-2.688-2.834
		c-1.327,1.053-2.808,1.865-4.441,2.435c-1.636,0.569-3.237,0.854-4.808,0.854c-2.362,0-4.235-0.615-5.619-1.844
		c-1.386-1.229-2.078-2.802-2.078-4.715c0-3.441,2.181-6.13,6.545-8.068c-1.792-1.951-2.688-3.925-2.688-5.923
		c0-2.301,0.872-4.223,2.617-5.76c1.746-1.538,3.938-2.307,6.58-2.307c2.361,0,4.293,0.617,5.794,1.853
		c1.501,1.236,2.251,2.823,2.251,4.76c0,2.423-1.228,4.555-3.682,6.396l2.53,2.688C265.439,127.005,266.155,125.866,266.807,124.448
		z M258.29,133.897l-2.914-3.053c-0.605,0.375-1.045,0.728-1.317,1.054c-0.275,0.327-0.413,0.745-0.413,1.254
		c0,0.557,0.193,1.018,0.578,1.381c0.384,0.363,0.873,0.544,1.465,0.544C256.458,135.078,257.324,134.686,258.29,133.897z
		 M259.547,122.759c1.547-0.472,2.321-1.326,2.321-2.562c0-0.558-0.184-1.011-0.55-1.363c-0.367-0.351-0.834-0.527-1.406-0.527
		c-0.558,0-1.033,0.188-1.422,0.563c-0.39,0.375-0.585,0.83-0.585,1.363C257.906,121.043,258.452,121.886,259.547,122.759z"/>
</g>
<g>
	<path fill="#FFFFFF" d="M516.184,117.105c-2.209-2.661-4.906-3.99-8.093-3.99c-3.176,0-5.868,1.329-8.079,3.99
		c-2.21,2.66-3.316,5.905-3.316,9.735c0,3.841,1.106,7.098,3.316,9.77c2.211,2.671,4.903,4.007,8.079,4.007
		c3.187,0,5.884-1.335,8.093-4.007c2.211-2.672,3.315-5.928,3.315-9.77C519.5,123.01,518.395,119.765,516.184,117.105z
		 M508.098,130.675c-1.737,0-3.146-1.856-3.146-4.146c0-2.29,1.408-4.146,3.146-4.146s3.146,1.856,3.146,4.146
		C511.244,128.819,509.835,130.675,508.098,130.675z"/>
	<ellipse fill="none" cx="508.098" cy="126.529" rx="3.146" ry="4.146"/>
</g>
<g>
	<path fill="#FFFFFF" d="M403.208,117.892c-2.209-2.661-4.906-3.99-8.093-3.99c-3.176,0-5.868,1.329-8.079,3.99
		c-2.21,2.66-3.316,5.905-3.316,9.735c0,3.841,1.106,7.098,3.316,9.77c2.211,2.671,4.903,4.007,8.079,4.007
		c3.187,0,5.884-1.335,8.093-4.007c2.211-2.672,3.315-5.928,3.315-9.77C406.524,123.796,405.419,120.551,403.208,117.892z
		 M395.123,131.461c-1.737,0-3.146-1.856-3.146-4.146c0-2.29,1.408-4.146,3.146-4.146s3.146,1.856,3.146,4.146
		C398.268,129.605,396.86,131.461,395.123,131.461z"/>
	<ellipse fill="none" cx="395.123" cy="127.316" rx="3.146" ry="4.146"/>
</g>
</svg>
